<svg width="24" height="24" viewBox="0 0 24 24" fill="none" xmlns="http://www.w3.org/2000/svg">
<path d="M21.0907 6.50604L20.7553 6.75096L20.7849 7.16521C20.7979 7.34727 20.7982 7.53375 20.7982 7.75136C20.7982 13.9312 16.0988 20.9963 7.5533 20.9963C5.95021 20.9963 4.41764 20.7145 2.99991 20.1964C4.76933 19.8947 6.39263 19.1573 7.75707 18.0879L9.41026 16.7921L7.31025 16.7477C5.89103 16.7177 4.65176 15.9934 3.91791 14.9048C4.32665 14.8836 4.72862 14.8191 5.10693 14.721L5.06779 13.26C3.51968 12.9461 2.28658 11.7858 1.87344 10.2798C2.28798 10.3941 2.72261 10.4636 3.16965 10.4805L5.82425 10.5806L3.61394 9.107C2.48961 8.35743 1.75505 7.07983 1.75505 5.63458C1.75505 5.25184 1.80512 4.88576 1.89927 4.5386C4.41926 7.16439 7.91119 8.8465 11.7781 9.04854L12.7499 9.09932L12.5514 8.14663C12.4841 7.82327 12.4454 7.49429 12.4454 7.17269C12.4454 4.8747 14.304 3.00391 16.6141 3.00391C17.8165 3.00391 18.8995 3.50713 19.6606 4.31988L19.9433 4.62165L20.3493 4.54378C20.6755 4.48122 20.998 4.40287 21.3152 4.3097C21.1486 4.44804 20.9707 4.57398 20.783 4.68606L21.2477 6.07572C21.4021 6.05911 21.5556 6.03876 21.7081 6.01488C21.509 6.18701 21.303 6.35099 21.0907 6.50604Z" stroke="#F1F1F1" stroke-width="1.5"/>
</svg>
