<svg width="24" height="24" viewBox="0 0 24 24" fill="none" xmlns="http://www.w3.org/2000/svg">
<g clip-path="url(#clip0_175_48555)">
<path fill-rule="evenodd" clip-rule="evenodd" d="M13.4213 1.36601L14.8503 2.43569C15.2412 2.72824 15.6526 2.87796 16.14 2.9051L17.9223 3.00424C18.9895 3.06358 19.8562 3.79085 20.1 4.83157L20.5071 6.56955C20.6185 7.04487 20.8374 7.42399 21.1933 7.75807L22.4949 8.97968C23.2743 9.71112 23.4707 10.8254 22.9886 11.7793L22.1833 13.3723C21.9631 13.808 21.887 14.2391 21.945 14.7239L22.1568 16.4963C22.2837 17.5576 21.718 18.5374 20.7355 18.9582L19.0945 19.661C18.6458 19.8532 18.3104 20.1346 18.0432 20.5431L17.0662 22.037C16.4812 22.9316 15.418 23.3185 14.3949 23.0093L12.6862 22.4929C12.2189 22.3517 11.7812 22.3517 11.3138 22.4929L9.60513 23.0093C8.58203 23.3185 7.51882 22.9316 6.93382 22.037L5.9568 20.5431C5.68956 20.1346 5.35422 19.8532 4.90549 19.661L3.26449 18.9581C2.28199 18.5373 1.71625 17.5575 1.8431 16.4962L2.05497 14.7238C2.11291 14.2391 2.03688 13.8079 1.81666 13.3722L1.01139 11.7792C0.529236 10.8253 0.72569 9.71107 1.50503 8.97958L2.80661 7.75798C3.16258 7.4239 3.38144 7.04477 3.49277 6.56946L3.89992 4.83148C4.14367 3.7908 5.01044 3.06354 6.07764 3.00415L7.85988 2.90501C8.34733 2.87791 8.75871 2.72815 9.14955 2.4356L10.5786 1.36591C11.4342 0.725507 12.5657 0.725507 13.4213 1.36601ZM11.0883 12.6122L9.53753 11.0614C9.13558 10.6594 8.4836 10.6594 8.08169 11.0614C7.67974 11.4634 7.67974 12.1153 8.08169 12.5172L10.3627 14.7982C10.7646 15.2001 11.4166 15.2001 11.8185 14.7982C13.1934 13.4233 14.5526 12.033 15.9212 10.6518C16.3202 10.2491 16.3189 9.59918 15.9167 9.19919C15.5144 8.79912 14.8627 8.80024 14.4632 9.20369L11.0883 12.6122ZM11.9999 4.3338C9.883 4.3338 7.96642 5.1919 6.57911 6.57921C5.1918 7.96657 4.33371 9.8831 4.33371 12C4.33371 14.1169 5.1918 16.0335 6.57911 17.4208C7.96642 18.8081 9.883 19.6662 11.9999 19.6662C14.1168 19.6662 16.0334 18.8081 17.4207 17.4208C18.8081 16.0335 19.6661 14.1169 19.6661 12C19.6661 9.8831 18.8081 7.96652 17.4207 6.57921C16.0334 5.1919 14.1168 4.3338 11.9999 4.3338ZM16.8904 7.10951C15.6389 5.85794 13.9098 5.0838 11.9999 5.0838C10.09 5.0838 8.36097 5.85794 7.10941 7.10951C5.85785 8.36107 5.0837 10.0901 5.0837 12C5.0837 13.9099 5.85785 15.639 7.10941 16.8905C8.36097 18.1421 10.09 18.9162 11.9999 18.9162C13.9098 18.9162 15.6389 18.1421 16.8904 16.8906C18.142 15.639 18.9161 13.9099 18.9161 12.0001C18.9161 10.0901 18.142 8.36107 16.8904 7.10951Z" fill="#A5A5A5"/>
</g>
<defs>
<clipPath id="clip0_175_48555">
<rect width="24" height="24" fill="white"/>
</clipPath>
</defs>
</svg>
