<svg width="167" height="33" viewBox="0 0 167 33" fill="none" xmlns="http://www.w3.org/2000/svg">
<path d="M140.952 21.3892C140.99 21.8802 141.005 22.2354 141.024 22.6206C141.062 23.5133 141.06 23.6676 141.169 23.3726L141.179 23.3435C141.34 22.8913 141.469 22.3625 141.592 21.689C141.712 21.0825 141.71 20.2364 141.675 19.5949C141.307 15.1127 140.817 7.9843 140.509 3.87667C140.789 4.26483 140.818 4.33178 141.244 4.83832L141.337 4.94507C141.731 5.41182 140.778 2.49097 139.944 0.382324L139.205 2.16686C139.337 2.45506 139.437 2.80052 139.566 3.11201C139.829 5.68547 140.511 15.694 140.954 21.3902L140.952 21.3892Z" fill="white"/>
<path d="M166.515 17.1108C166.256 16.3335 165.863 15.7289 165.274 15.6552C164.639 15.5737 163.879 16.6654 163.43 17.6862C163.131 18.38 162.909 19.363 162.861 20.28C162.836 20.6653 162.828 21.1359 162.843 21.6182C161.968 21.8511 160.93 21.7511 160.144 21.3164C159.659 21.0486 158.964 20.3198 158.824 17.66C158.509 13.7358 158.346 10.3297 158.199 7.53016C158.596 7.31376 158.952 7.11581 159.133 7.0178C159.882 6.55589 160.42 6.24926 161.705 4.84511C161.924 4.60349 162.208 4.26579 162.437 3.93586C162.652 4.08433 162.835 4.20951 163.027 4.33275L163.428 3.60884C163.24 3.4594 163.048 3.3187 162.863 3.20031C163.221 2.4667 163.299 1.88447 163.116 1.41481C162.744 0.679255 161.551 1.50699 161.303 2.04653C160.834 2.97712 161.614 3.3876 162.149 3.73887C162.179 3.75925 162.208 3.77866 162.236 3.79904C162.061 4.03096 161.864 4.259 161.683 4.43173C160.272 5.78056 159.231 6.49573 158.179 7.18665C158.005 3.9378 157.846 1.54193 157.477 0.151367L156.722 1.92911C156.927 3.47396 157.109 5.64374 157.26 7.79605C156.757 8.12695 155.912 8.64901 156.448 8.41418L156.655 8.32394C156.815 8.25407 157.034 8.14635 157.275 8.02214C157.461 10.7169 157.595 13.3486 157.657 14.6508C157.657 14.679 157.657 14.7032 157.657 14.7275C157.555 14.8643 157.452 14.9992 157.337 15.0933C157.027 15.3903 156.553 15.6707 156.034 15.8735V15.8793C155.193 16.2102 153.952 16.3306 153.301 15.7086C153.171 15.5853 152.932 15.269 152.778 14.9614C152.651 14.7081 152.565 14.4645 152.546 14.1462C152.498 13.7629 152.709 13.1108 152.136 13.6086C151.89 13.8221 151.689 14.0977 151.447 14.3675C151.181 14.6838 150.815 15.0797 150.529 15.3097C149.986 15.7493 149.286 16.0443 148.541 16.2238C148.479 16.0472 148.414 15.8745 148.345 15.7056C147.922 14.7158 146.802 13.3185 145.755 13.2865C144.956 13.2894 143.801 14.4461 143.679 16.1365C143.635 16.6877 143.767 17.3165 144.009 17.6367C144.229 17.9298 144.563 18.1481 144.976 18.2296C145.155 18.2655 145.296 18.2869 145.496 18.3063C146.334 18.3887 147.299 18.3431 148.198 18.1277C148.418 18.5605 148.612 18.9749 148.681 19.2446C148.622 19.3213 148.577 19.3688 148.521 19.4368C148.407 19.5794 147.902 19.9773 147.351 20.2315C146.52 20.6148 145.742 20.7439 144.931 20.9379C144.401 21.066 144.109 21.1068 143.412 21.2805L142.977 23.1621C143.05 23.4561 144.847 23.8015 146.327 24.1101C147.937 24.5284 148.71 24.7389 148.947 24.8835C149.059 24.9408 149.14 25.0233 149.199 25.1154C149.036 25.3047 148.842 25.492 148.617 25.6589C146.88 27.0708 142.237 30.4923 137.784 30.1838C135.59 30.0528 133.973 28.7845 133.486 27.3172C132.78 25.065 133.745 22.8496 134.188 21.7599C134.237 21.7337 134.283 21.7094 134.324 21.689C134.471 21.6162 134.484 21.5988 134.607 21.5435C135.337 23.6773 136.611 23.9995 137.575 24.0791C138.52 24.1198 139.353 23.6075 139.705 21.8938C139.977 20.3761 139.092 19.067 137.896 18.8827C137.434 18.8118 136.599 18.9341 135.35 19.4659C135.123 18.545 134.932 17.7134 134.767 15.6523C134.441 11.6562 134.13 7.40498 133.883 4.44531C134.137 4.79853 134.179 4.87713 134.59 5.36718L134.681 5.47295C135.209 5.99987 134.101 2.88202 133.288 0.910205L132.548 2.69474C132.681 2.98392 132.781 3.32937 132.91 3.63989C133.171 6.14445 133.561 12.0153 133.98 17.4174C134.074 18.6081 134.179 19.3756 134.3 19.987C134.111 20.0976 133.909 20.2208 133.747 20.315C132.71 20.9127 130.978 21.298 130.111 20.4712C129.981 20.348 129.742 20.0316 129.587 19.724C129.46 19.4707 129.375 19.2272 129.356 18.9089C129.307 18.5256 129.519 17.8735 128.946 18.3713C128.699 18.5848 128.498 18.8604 128.257 19.1301C127.991 19.4465 127.625 19.8424 127.338 20.0724C125.907 21.231 123.761 21.593 121.74 21.7618C122.22 21.558 122.68 21.3397 123.111 21.1058C124.094 20.5275 124.57 20.0714 124.867 18.4771C125.074 16.9361 123.285 15.2738 121.148 14.9779C119.107 14.7615 117.26 16.1569 115.357 18.4635C115.689 17.2233 115.664 15.7959 115.393 12.5897C115.087 8.83921 114.82 5.99987 114.602 3.76701C114.834 4.09112 114.886 4.1804 115.284 4.65297L115.376 4.75875C115.778 5.23326 114.818 2.30562 113.983 0.196004L113.244 1.98054C113.376 2.26971 113.476 2.61517 113.605 2.92569C113.877 5.40308 114.223 8.9576 114.64 14.3675C114.874 16.8633 114.9 18.3092 114.912 19.0205C114.241 19.8783 113.56 20.8409 112.861 21.8792C111.564 22.15 110.163 22.7341 109.521 23.6812C109.159 24.211 108.704 25.1552 108.723 26.2498C107.392 25.4444 106.43 24.2605 106.027 22.0054C108.122 21.295 109.64 20.5032 109.889 19.9676C110.155 19.5532 110.494 18.6216 110.564 17.6959C110.681 15.8357 109.726 14.5693 109.166 13.9599L108.434 15.727C108.989 16.349 109.601 17.4058 109.864 18.0171C109.974 18.3499 109.915 18.4596 109.903 18.5168C109.763 18.9118 108.122 19.6697 105.845 20.3499C105.843 20.3111 105.84 20.2732 105.838 20.2344C105.566 14.939 105.253 10.0609 104.85 6.18618C107.756 5.18572 111.016 4.06492 111.949 3.71655L112.076 2.99847C111.121 3.35363 107.735 4.51809 104.78 5.53505C104.665 4.48607 104.542 3.51666 104.411 2.64137C104.288 1.74571 104.11 0.880123 103.96 0.330886L103.221 2.11542C103.37 2.66466 103.549 3.52927 103.672 4.42493C103.73 4.87616 103.786 5.35553 103.842 5.85722C102.175 6.43169 100.764 6.92076 100.199 7.12648L100.073 7.84457C100.66 7.63108 102.16 7.11192 103.912 6.50835C104.303 10.2366 104.644 15.1593 104.961 20.6003C101.542 21.5221 97.0684 22.1771 93.9552 21.3271C92.5049 20.9282 91.603 20.0219 91.2642 19.2805C90.4672 17.5416 91.3438 15.6785 91.3933 15.466L91.4069 15.4174C91.7166 14.1491 89.4732 18.1345 90.9303 21.1835C91.304 21.9549 92.1864 22.8438 93.6261 23.2348C96.8509 24.115 101.539 23.3775 105.061 22.3169C105.451 27.8413 108.999 28.4807 112.725 29.8402L112.793 27.9102C112.793 27.9102 112.793 27.9102 112.792 27.9102L112.796 27.7588C111.624 27.228 110.027 26.6215 109.469 25.4551C110.35 24.3566 112.307 23.7152 113.693 23.6201C114.687 23.7734 118.762 23.8219 119.402 23.7957C121.872 23.654 125.084 23.5337 127.007 21.9772C127.294 21.7463 127.66 21.3504 127.926 21.034C128.167 20.7652 128.468 20.3819 128.617 20.1927C128.805 19.9608 128.901 20.3489 128.971 20.7303C129.034 21.0816 129.133 21.3834 129.258 21.6289C129.412 21.9365 129.651 22.2518 129.781 22.377C130.648 23.2038 132.38 22.8176 133.417 22.2198C133.522 22.1597 133.641 22.0869 133.765 22.0141C133.082 23.294 132.161 25.8588 132.841 28.3274C133.493 30.7786 135.527 31.9887 137.789 32.1216C142.208 32.4292 146.818 29.0067 148.454 27.589C149.623 26.5409 149.978 25.3144 149.948 24.3828C149.971 23.9384 149.849 23.5201 149.503 23.2154C149.09 22.8496 148.328 22.5798 146.79 22.2402C146.868 22.2082 146.945 22.1752 147.023 22.1393C147.575 21.885 148.034 21.5211 148.193 21.3445C148.56 20.9302 148.793 20.2499 148.888 19.6338C148.896 19.5881 148.905 19.5425 148.911 19.496C148.945 19.3038 148.954 19.1874 148.96 19.0457C148.987 18.6614 148.977 18.283 148.938 17.9123C149.407 17.7386 149.84 17.5096 150.203 17.2165C150.488 16.9856 150.855 16.5906 151.121 16.2733C151.363 16.0045 151.664 15.6212 151.811 15.432C152 15.2001 152.096 15.5882 152.165 15.9696C152.229 16.3218 152.328 16.6227 152.452 16.8682C152.606 17.1758 152.845 17.4911 152.976 17.6163C153.628 18.2393 154.859 18.1015 155.701 17.7784L155.876 16.8313L155.709 17.7803C156.228 17.5775 156.702 17.2961 157.01 16.9992C157.349 16.6615 157.605 16.1598 157.771 15.6901C157.839 16.874 157.919 18.1161 158.014 19.4154C158.246 22.0694 159.331 22.9563 159.816 23.2242C160.64 23.6793 161.741 23.7686 162.641 23.4901C162.773 23.4493 162.903 23.4066 163.031 23.362C163.043 23.4163 163.054 23.4697 163.067 23.5211L163.145 23.7812C163.258 24.1868 163.269 23.8724 163.263 23.2766C164.058 22.9758 164.776 22.5905 165.353 22.0976C165.936 21.5881 166.441 20.871 166.674 19.8084C166.825 19.2485 166.851 18.1364 166.521 17.1146L166.515 17.1108ZM161.641 2.17267C161.87 1.88253 162.388 1.81752 162.562 2.01353C162.749 2.24157 162.786 2.60061 162.647 3.06737C162.619 3.05184 162.591 3.03632 162.565 3.02273C162.023 2.70833 161.694 2.46379 161.64 2.17267H161.641ZM120.487 16.7925C122.271 17.0157 123.551 18.0724 124.067 18.5663C124.29 18.8118 124.013 18.8943 123.447 19.2019C120.819 20.6226 117.169 21.5114 114.045 21.7123C113.985 21.7162 113.924 21.721 113.862 21.7269C113.848 21.722 113.836 21.7181 113.83 21.7133L113.827 21.7298C113.758 21.7366 113.688 21.7434 113.616 21.7521C116.001 18.5081 118.179 16.5848 120.488 16.7915L120.487 16.7925ZM137.562 20.7856C138.674 20.8613 139.046 21.6095 139.074 21.8889C138.843 22.1451 138.348 22.1965 137.912 22.1762C137.231 22.1208 136.437 21.952 135.876 21.0427C136.66 20.7885 137.217 20.7322 137.562 20.7856ZM145.834 16.4033C145.634 16.3839 145.491 16.3626 145.315 16.3267C145.141 16.2898 144.942 16.2161 144.833 16.1578C144.683 16.0754 144.566 15.9822 144.566 15.9007C144.68 15.4572 145.136 15.1467 145.69 15.2166C146.274 15.2913 146.804 15.8066 147.238 16.4198C146.753 16.4528 146.276 16.446 145.834 16.4024V16.4033ZM165.683 20.1908C165.027 20.7497 164.188 21.1738 163.26 21.4882C163.268 21.2747 163.28 21.067 163.297 20.8749C163.397 19.8589 163.591 19.1951 163.781 18.8089C164.15 18.0268 164.568 17.4941 164.94 17.5562C165.416 17.7502 165.704 18.4945 165.84 18.8468C165.939 19.0641 166.014 19.4911 166.053 19.6483C166.044 19.757 165.904 19.9811 165.683 20.1898V20.1908Z" fill="white"/>
<path d="M88.682 15.6289C88.3539 11.5931 88.0228 6.98768 87.7675 3.86886C88.0228 4.22499 88.0636 4.30263 88.4772 4.79364L88.5684 4.89941C88.9703 5.37296 88.0112 2.44531 87.1754 0.33667L86.4357 2.1212C86.5687 2.40941 86.6686 2.75583 86.7978 3.06636C87.0579 5.57091 87.4773 11.9929 87.8966 17.3941C88.0248 19.0437 88.0898 20.1849 88.1325 20.9447C88.1151 20.9573 88.1005 20.969 88.0879 20.9787C87.983 21.0757 87.6656 21.2242 87.488 21.3057C86.6512 21.6909 85.4135 21.5929 84.7242 20.9825C84.5602 20.837 84.3971 20.6565 84.2699 20.3974C84.1534 20.1354 84.0894 19.8191 84.1039 19.5279L84.1486 19.3911C84.3718 18.7555 84.1884 18.6478 83.8078 18.9933C83.6564 19.1291 83.536 19.3086 83.2429 19.6434C82.9691 19.9423 82.8895 20.0519 82.6798 20.2518C82.5352 20.3925 82.3546 20.5333 82.2032 20.639C81.2237 21.3212 79.4433 21.4105 78.5803 20.5857C78.3823 20.3828 78.1678 20.1189 78.0251 19.855C77.3349 18.4343 77.5853 15.2262 76.1622 12.4519L76.1466 12.5082C76.1428 12.4956 76.1389 12.482 76.136 12.4684L75.636 14.3335C76.3389 16.3839 76.8068 19.1708 76.9834 20.4576C76.898 20.6293 76.9388 20.573 76.8116 20.7438C76.6777 20.9233 76.4088 21.1553 76.1767 21.2785C75.3196 21.7375 74.177 21.8142 73.2606 21.4881C72.8344 21.3367 72.4461 21.1223 72.0967 20.8826C72.0297 20.8224 71.9656 20.7661 71.9074 20.7128C71.1036 19.9646 71.0104 19.4416 70.9191 19.1359C70.8415 18.8186 70.6959 18.4343 70.1027 19.428C69.93 19.6919 69.3339 20.573 68.7146 21.0291C68.0991 21.4823 67.3225 21.8268 66.5051 22.0529C66.442 21.8879 66.3741 21.7249 66.2993 21.5638C65.9207 20.7555 64.8801 19.3309 63.8317 19.298C63.0328 19.3018 61.8785 20.4576 61.7562 22.148C61.6708 23.7404 62.8638 24.2178 63.4764 24.2576C64.2928 24.31 65.2111 24.212 66.0867 23.9791C66.1731 24.1508 66.2479 24.3061 66.3081 24.439C66.3692 24.5739 66.4469 24.7505 66.5129 24.9436C66.4246 25.0649 66.3042 25.226 66.1411 25.4395C64.5714 27.5171 60.2593 31.1007 57.3839 31.0716C55.9356 31.0561 54.4037 30.2157 54.3445 27.9082C54.3096 26.176 55.0881 24.4827 55.2502 23.6812L55.2677 23.5793C55.2745 23.5444 55.2764 23.5211 55.2764 23.5036C55.854 23.4473 56.4171 23.2804 56.9024 23.0553C57.0976 22.965 57.7577 22.637 58.776 21.3183C59.9127 19.7579 60.103 19.5949 60.5234 19.5813C60.7602 19.5813 60.833 19.8161 60.8864 19.8967L60.9243 19.9753C61.1961 20.5313 62.0348 17.6861 61.2553 17.4765C60.5098 17.2718 59.4157 18.9137 58.909 19.5939C57.9441 20.869 57.4334 21.0611 57.2383 21.1514C55.9181 21.7637 54.0329 21.951 52.8098 20.6235C52.2224 19.986 51.9817 19.5697 51.5992 18.9001C50.5877 16.8807 49.4966 17.5959 48.9685 18.0093C46.4969 19.9588 46.1125 24.8243 44.004 25.1309C43.573 25.2328 42.7906 25.0921 42.1305 23.4949C41.717 22.5517 41.7034 20.9971 41.6975 20.3799C41.7383 19.3251 41.88 18.8496 41.8878 18.4751L41.9111 18.2373C41.9723 17.2864 41.5199 18.5867 41.4461 20.3518C41.4151 21.0941 41.3578 23.3833 42.0878 24.8272C42.745 26.0858 43.4643 26.8844 44.3574 26.6282C46.4154 26.0479 46.661 21.4794 48.7326 19.9277C49.2995 19.4988 50.1606 18.8487 51.2643 20.802C51.6419 21.4706 51.8866 21.8889 52.4748 22.5264C53.2349 23.3512 54.2513 23.5909 55.2289 23.5075C54.9901 23.8141 53.9649 26.2896 54.0397 28.2992C54.1474 31.6111 55.8307 32.9852 57.2839 32.9998C60.1593 33.0289 64.4374 29.4433 65.9732 27.3628C66.2955 26.9223 66.5974 26.3662 66.6799 26.0887C66.7265 25.9296 66.7624 25.7821 66.7905 25.6394C66.876 25.259 66.908 24.9301 66.9128 24.606C66.9128 24.6001 66.9128 24.5953 66.9138 24.5895C66.9148 24.5681 66.9138 24.5506 66.9138 24.5371C66.9148 24.2906 66.9022 24.0441 66.8886 23.7772C66.8876 23.7588 66.8847 23.7404 66.8837 23.721C67.4332 23.5133 67.9457 23.2484 68.3787 22.9301C68.8825 22.5584 69.3708 21.8064 69.7795 21.3328C69.6882 22.6448 70.0251 23.5647 70.4493 24.1732C71.1036 24.9902 72.385 25.9121 72.6063 25.2154L72.9645 23.9432C73.0111 23.7627 73.0441 23.5919 73.0665 23.4298C73.9615 23.687 75.0264 23.6094 75.8428 23.1785C76.0777 23.0553 76.3437 22.8234 76.4787 22.6429C76.6544 22.4061 76.6883 22.3517 76.8679 21.9704C76.9136 21.8685 76.9466 21.7462 76.9718 21.6201L77.196 20.5177C77.329 20.9748 77.4873 21.392 77.6892 21.754C77.8329 22.0179 78.0474 22.2809 78.2445 22.4837C79.121 23.293 80.881 23.2105 81.8673 22.5371C82.0217 22.4323 82.2003 22.2906 82.3449 22.1499C82.5536 21.949 82.7604 21.6802 82.8779 21.5172C83.0371 21.2872 83.1836 21.0146 83.306 20.9398C83.4467 20.8612 83.5681 20.9311 83.5923 21.1068L83.6137 21.0417L83.5933 21.1097C83.636 21.6201 83.7661 21.9898 83.936 22.2964C84.0631 22.5546 84.2262 22.7351 84.3903 22.8816C85.0776 23.491 86.3124 23.62 87.1472 23.2348C87.3249 23.1533 87.6472 22.9738 87.753 22.8767C88.1267 22.5827 88.3209 22.244 88.4539 21.8472C88.8237 20.8583 89.0344 19.9462 88.683 15.6251L88.682 15.6289ZM63.8123 22.3547C63.1987 22.3158 62.6483 22.0742 62.6406 21.9122C62.7541 21.4687 63.2104 21.1582 63.7647 21.2281C64.3394 21.3018 64.7772 21.7734 65.1393 22.3168C64.683 22.3673 64.2336 22.3818 63.8123 22.3547ZM70.8531 21.7918C70.8871 21.8404 70.924 21.886 70.9657 21.9277C71.3113 22.1703 71.8239 22.737 72.184 23.4997C71.6695 23.1125 71.091 22.509 70.8522 21.7918H70.8531Z" fill="white"/>
<path d="M66.9148 24.571C66.9148 24.578 66.9138 24.585 66.9128 24.592C66.9128 24.594 66.9128 24.595 66.9128 24.596L66.9148 24.571Z" fill="white"/>
<path d="M40.0364 15.8928C39.7073 11.8473 39.3753 7.22927 39.12 4.10948C39.2724 4.30647 39.3744 4.42001 39.6695 4.73344L39.7966 4.65872C40.085 4.87997 39.3501 2.66653 38.5298 0.599609L37.7911 2.38414C37.9231 2.67235 38.0231 3.01878 38.1522 3.3293C38.4123 5.83386 38.8317 12.2559 39.2511 17.657C39.3792 19.3067 39.4452 20.4478 39.4879 21.2076C39.4705 21.2203 39.4549 21.2319 39.4433 21.2416C39.3384 21.3386 39.021 21.4871 38.8434 21.5686C37.2377 22.3081 34.9555 22.1635 33.5401 21.1057C33.4081 21.0077 33.2829 20.9136 33.1606 20.8224C34.1139 20.3518 34.9448 20.017 35.5661 19.853C35.6574 19.8345 35.7826 19.8132 35.9612 19.8413L36.6223 18.0267C36.3388 17.9413 34.5051 16.7584 31.919 16.6672C30.658 16.5799 28.2204 17.066 27.0623 17.7133L26.4012 19.5279C27.7545 19.0815 28.5252 19.5036 30.227 20.7913C27.9496 22.1382 25.5615 23.8626 23.8171 25.7587C22.7415 26.9154 21.2067 28.5534 19.8079 29.6238C19.0788 30.1798 17.9945 30.6883 17.1859 30.5738C15.2075 30.3011 15.4288 27.584 15.8734 26.2265C16.383 24.6835 16.7898 24.1149 16.9121 23.7636L16.9364 23.6841C17.2393 22.7962 16.1782 24.2294 15.4599 26.4933C14.9978 27.9314 14.8997 31.7819 17.7868 32.1953C18.608 32.2302 19.2536 31.9275 19.8079 31.5558C21.1543 30.6446 22.7376 28.8746 23.8171 27.6898C25.9954 25.323 28.9475 23.1843 31.4821 21.7229C32.019 22.1217 32.5412 22.5109 33.2043 23.0067C34.6186 24.0644 36.898 24.2381 38.5017 23.5007C38.6803 23.4191 39.0016 23.2396 39.1074 23.1436C39.4811 22.8495 39.6753 22.5118 39.8083 22.1149C40.1791 21.1252 40.3898 20.2149 40.0384 15.8919L40.0364 15.8928ZM30.6201 18.935C30.4764 18.8253 30.3415 18.7254 30.2124 18.6303C30.7347 18.5692 31.2094 18.5449 31.5821 18.5701C32.4277 18.5992 33.1771 18.7429 33.8081 18.9234C33.2091 19.1922 32.5587 19.5095 31.8782 19.8685C31.4841 19.5755 31.0851 19.2795 30.6201 18.934V18.935Z" fill="white"/>
<path d="M10.5509 21.462C10.9295 22.1306 11.1741 22.5479 11.7614 23.1864C13.0933 24.6313 16.2453 24.0966 17.7742 22.8594C18.0596 22.6284 18.4266 22.2335 18.6926 21.9172C18.9343 21.6474 19.2352 21.2641 19.3828 21.0758C19.5721 20.8439 19.6682 21.2311 19.7381 21.6125C19.8012 21.9647 19.9002 22.2655 20.0235 22.511C20.1778 22.8186 20.4166 23.134 20.5477 23.2592C21.301 23.9783 22.7309 23.7337 23.7046 23.364C23.7997 23.3281 23.9803 23.2301 24.1356 23.1136C24.6278 22.7216 24.9442 21.8686 25.0792 21.0186C25.3743 19.2806 24.7151 17.4679 23.9259 16.4597L23.59 18.3626C24.1433 19.3165 24.4637 20.2529 24.552 20.9322C24.5559 21.1079 24.5501 21.1535 24.4705 21.2107C24.3152 21.3272 24.1346 21.4252 24.0395 21.462C23.0648 21.8298 21.6369 22.0753 20.8826 21.3563C20.7525 21.233 20.5127 20.9177 20.3584 20.6091C20.2322 20.3568 20.1458 20.1122 20.1264 19.794C20.0788 19.4107 20.2904 18.7595 19.7177 19.2564C19.4711 19.4699 19.2692 19.7454 19.0284 20.0152C18.7625 20.3316 18.3955 20.7275 18.1101 20.9574C16.5812 22.1937 13.4291 22.7294 12.0973 21.2845C11.509 20.6469 11.2683 20.2306 10.8867 19.5611C9.87425 17.5417 8.78409 18.2569 8.25601 18.6712C5.7835 20.6198 5.39908 25.4862 3.29157 25.7929C2.85959 25.8948 2.07716 25.7541 1.41802 24.1568C1.00448 23.2136 0.989919 21.6581 0.985065 21.0409C1.02584 19.9861 1.1666 19.5116 1.17533 19.137L1.19863 18.8993C1.2064 18.7741 1.20543 18.6887 1.19863 18.6373C1.58208 18.7149 2.09755 18.6547 2.41304 18.0463C2.58292 17.7329 2.73922 17.0837 2.7829 16.7334L2.79067 16.6742C2.83823 16.2268 2.75281 16.7586 2.50623 17.0973C2.28199 17.3893 1.68012 17.4825 1.3423 17.3001C1.0404 17.1409 0.654038 16.7266 0.601618 16.0104C0.511338 14.9663 1.03069 13.8232 1.45879 12.5326C1.68983 11.8785 1.87039 11.1789 1.89854 11.012L1.93252 10.8451C2.1024 9.7175 1.63644 11.6495 1.18601 12.6529C0.65598 13.9455 -0.0487867 15.4728 0.00266318 16.8023C0.034698 17.4291 0.218171 18.2025 0.968563 18.5722C1.0171 18.5907 1.07146 18.6081 1.12874 18.6227C1.00836 18.8342 0.784119 19.8172 0.734611 21.0147C0.703547 21.758 0.645302 24.0462 1.37628 25.4901C2.03251 26.7477 2.75281 27.5463 3.6459 27.2911C5.7039 26.7099 5.95047 22.1413 8.02108 20.5897C8.58703 20.1608 9.44906 19.5106 10.5518 21.465L10.5509 21.462Z" fill="white"/>
<path d="M5.88159 14.4839C6.39706 14.743 7.10474 15.1739 7.63089 15.4815L8.5434 13.8474C8.01725 13.5407 7.1989 13.0235 6.68343 12.7644L5.88159 14.4839Z" fill="white"/>
<path d="M10.5674 14.9836L11.3886 13.2631C10.8625 12.9555 10.1043 12.4752 9.58981 12.2161L8.66663 13.8696C9.1821 14.1287 10.0422 14.677 10.5674 14.9836Z" fill="white"/>
<path d="M9.71497 27.1465C10.2304 27.4056 10.9381 27.8374 11.4633 28.1441L12.3758 26.51C11.8506 26.2033 11.0313 25.6861 10.5168 25.427L9.71497 27.1465Z" fill="white"/>
<path d="M13.4223 24.8777L12.5001 26.5322C13.0156 26.7913 13.8747 27.3386 14.4009 27.6452L15.2211 25.9257C14.696 25.6191 13.9378 25.1368 13.4223 24.8777Z" fill="white"/>
<path d="M45.5328 12.3374C46.0483 12.5965 46.756 13.0283 47.2821 13.335L48.1946 11.7009C47.6685 11.3933 46.8501 10.877 46.3347 10.6169L45.5328 12.3365V12.3374Z" fill="white"/>
<path d="M48.318 11.7231C48.8325 11.9822 49.6936 12.5295 50.2187 12.8361L51.04 11.1156C50.5138 10.809 49.7557 10.3277 49.2412 10.0686L48.318 11.7231Z" fill="white"/>
<path d="M79.5801 13.3496C80.0955 13.6087 80.8032 14.0406 81.3284 14.3472L82.2419 12.7131C81.7157 12.4064 80.8974 11.8892 80.3819 11.6301L79.5801 13.3496Z" fill="white"/>
<path d="M85.0863 12.1298C84.5611 11.8232 83.8029 11.3409 83.2884 11.0818L82.3652 12.7363C82.8807 12.9954 83.7398 13.5436 84.266 13.8493L85.0863 12.1298Z" fill="white"/>
<path d="M56.1646 27.6531C56.68 27.9122 57.3877 28.3431 57.9129 28.6497L58.8254 27.0156C58.3002 26.7089 57.4819 26.1917 56.9664 25.9336L56.1646 27.6531Z" fill="white"/>
<path d="M58.9497 27.0378C59.4652 27.2969 60.3243 27.8452 60.8504 28.1518L61.6707 26.4313C61.1455 26.1247 60.3874 25.6434 59.8719 25.3843L58.9497 27.0378Z" fill="white"/>
<path d="M74.2644 9.55253C74.7789 9.81162 75.5526 10.1891 76.0787 10.4967L76.8806 8.77719C76.3554 8.47055 75.5817 8.0921 75.0662 7.83301L74.2644 9.55253Z" fill="white"/>
<path d="M18.3208 26.3877C18.8363 26.6468 19.609 27.0243 20.1351 27.3319L20.937 25.6124C20.4108 25.3048 19.6381 24.9273 19.1226 24.6682L18.3208 26.3877Z" fill="white"/>
<path d="M96.9197 13.4766C97.4351 13.7357 98.1428 14.1665 98.669 14.4742L99.5815 12.84C99.0553 12.5334 98.237 12.0162 97.7225 11.7571L96.9197 13.4766Z" fill="white"/>
<path d="M100.628 11.208L99.7048 12.8615C100.22 13.1206 101.08 13.6689 101.606 13.9755L102.427 12.255C101.901 11.9474 101.143 11.4671 100.628 11.207V11.208Z" fill="white"/>
<path d="M118.689 12.0843C119.204 12.3434 119.977 12.7208 120.503 13.0284L121.305 11.3089C120.78 11.0013 120.006 10.6238 119.491 10.3647L118.689 12.0843Z" fill="white"/>
<path d="M126.902 11.9349C127.418 12.1939 128.191 12.5714 128.717 12.879L129.519 11.1595C128.993 10.8519 128.22 10.4744 127.705 10.2153L126.903 11.9349H126.902Z" fill="white"/>
<path d="M144.766 10.5617C144.24 10.2541 143.422 9.73785 142.906 9.47876L142.104 11.1973C142.62 11.4574 143.328 11.8882 143.854 12.1949L144.766 10.5607V10.5617Z" fill="white"/>
<path d="M146.79 11.6979L147.611 9.97746C147.085 9.66984 146.327 9.18854 145.813 8.92944L144.889 10.5839C145.405 10.843 146.265 11.3913 146.79 11.6979Z" fill="white"/>
<path d="M151.067 12.0686L151.981 10.4345C151.455 10.1279 150.636 9.61065 150.121 9.35156L149.319 11.0711C149.835 11.3302 150.542 11.762 151.067 12.0686Z" fill="white"/>
<path d="M154.005 11.5707L154.825 9.85026C154.299 9.54362 153.542 9.06134 153.026 8.80225L152.103 10.4567C152.618 10.7158 153.478 11.2631 154.004 11.5698L154.005 11.5707Z" fill="white"/>
<path d="M155.756 2.70825C154.136 3.3128 145.604 6.21134 143.977 6.80424L143.87 7.40588C145.498 6.81297 154.028 3.91444 155.65 3.30989L155.756 2.70825Z" fill="white"/>
<path d="M116.99 3.66524C118.812 2.96656 122.476 1.56921 124.039 0.977276L124.291 0.284424C122.727 0.876358 119.073 2.27468 117.242 2.97335C116.615 3.21304 116.388 3.3159 116.347 3.43526L116.095 4.12811C116.226 3.97576 116.365 3.90686 116.991 3.66621L116.99 3.66524Z" fill="white"/>
<path d="M122.255 6.89753C122.749 6.04262 122.258 5.51958 121.973 4.75007C121.832 4.34057 121.927 3.89225 121.742 4.36386L121.682 4.53853C121.603 4.7491 121.59 4.9228 121.63 5.08485C121.735 5.69134 122.363 6.26872 122.105 6.63067C121.869 6.87812 121.273 6.84804 121.014 6.58313C120.551 6.2202 120.695 4.76172 120.345 4.29011L120.143 4.76463C120.204 4.95094 120.274 5.15666 120.332 5.36335C120.402 5.66514 120.435 5.94947 120.46 6.20468C120.45 6.37255 120.409 6.5249 120.32 6.6462C119.706 7.39145 119.02 7.14013 118.809 6.7413C118.378 5.91744 119.102 4.91795 118.705 4.4803L118.419 4.84129C118.24 5.11008 118.305 5.31289 118.419 5.51764C118.357 5.99798 118.272 6.64523 118.488 7.26531C118.684 7.83589 119.715 8.57435 120.496 6.88782C120.509 6.86648 120.519 6.84222 120.529 6.81893C120.561 6.9868 120.607 7.11975 120.692 7.20417C120.958 7.53022 121.625 7.96689 122.255 6.89559V6.89753Z" fill="white"/>
<path d="M83.7797 6.64411C84.2728 5.78921 83.7816 5.26714 83.4972 4.49665C83.3555 4.08715 83.4516 3.63883 83.2662 4.11044L83.206 4.28511C83.1273 4.49568 83.1128 4.66938 83.1545 4.83144C83.2594 5.43792 83.8865 6.01531 83.6282 6.37726C83.3923 6.62568 82.7963 6.59462 82.5371 6.32971C82.075 5.96678 82.2197 4.5083 81.8692 4.03669L81.6673 4.51121C81.7285 4.69752 81.7974 4.9013 81.8566 5.108C81.9275 5.41173 81.9605 5.69702 81.9848 5.95223C81.9751 6.12011 81.9343 6.27148 81.845 6.39375C81.2315 7.13804 80.5451 6.88768 80.3345 6.48788C79.9035 5.66402 80.6267 4.66453 80.2316 4.22689L79.9452 4.58787C79.7666 4.85764 79.8307 5.05948 79.9452 5.26423C79.8831 5.74457 79.7986 6.39084 80.0132 7.01092C80.2102 7.58247 81.2402 8.31996 82.0216 6.63344C82.0343 6.61209 82.044 6.58783 82.0547 6.56454C82.0857 6.73339 82.1323 6.86633 82.2168 6.95075C82.4818 7.2768 83.1497 7.71347 83.7807 6.64217L83.7797 6.64411Z" fill="white"/>
<path d="M75.6058 3.3392C75.066 3.81469 74.3671 4.19314 73.5507 4.50269C73.2808 4.60458 73.0333 4.65989 72.777 4.7414C72.7285 4.75499 72.6751 4.76955 72.6168 4.78701L72.6052 4.78992C72.6052 4.78992 72.6032 4.78992 72.6023 4.79186C72.2994 4.87823 73.3342 4.82097 73.6565 4.77731C75.0573 4.59293 75.3437 4.42409 75.932 3.37996L76.5241 2.10681C76.0737 1.68179 74.3108 1.5469 72.8964 1.68081L71.9858 3.23537C73.2643 3.16938 74.8078 3.25381 75.6058 3.33823V3.3392Z" fill="white"/>
<path d="M54.0114 6.93242L53.6328 7.96879C53.7668 7.81741 53.9726 7.72037 54.5288 7.50688C56.8043 6.63451 70.5084 1.62927 72.0723 1.03734L72.4499 0C70.887 0.591934 57.1926 5.59717 54.9064 6.46954C54.3502 6.68303 54.0512 6.81112 54.0114 6.93145V6.93242Z" fill="white"/>
<path d="M54.3183 14.6081C54.5144 15.1787 55.5453 15.9171 56.3268 14.2316C56.3394 14.2102 56.3491 14.185 56.3598 14.1627C56.3908 14.3315 56.4374 14.4635 56.5219 14.5479C56.7869 14.874 57.4538 15.3106 58.0858 14.2393C58.5789 13.3854 58.0887 12.8624 57.8033 12.0919C57.6615 11.6824 57.7576 11.234 57.5722 11.7057L57.512 11.8803C57.4334 12.0909 57.4188 12.2646 57.4596 12.4267C57.5654 13.0331 58.1925 13.6105 57.9343 13.9725C57.6984 14.2209 57.1024 14.1898 56.8432 13.9249C56.3811 13.562 56.5258 12.1035 56.1743 11.6319L55.9734 12.1064C56.0346 12.2927 56.1035 12.4965 56.1627 12.7032C56.2336 13.0069 56.2666 13.2932 56.2908 13.5484C56.2811 13.7163 56.2404 13.8677 56.151 13.989C55.5366 14.7342 54.8512 14.4829 54.6406 14.0831C54.2095 13.2592 54.9327 12.2597 54.5377 11.8221L54.2513 12.1831C54.0727 12.4529 54.1377 12.6547 54.2513 12.8594C54.1892 13.3398 54.1047 13.9861 54.3192 14.6061L54.3183 14.6081Z" fill="white"/>
<path d="M35.6934 1.39941C34.1305 1.99135 17.3588 8.10282 14.9338 9.02857C14.399 9.23332 14.0786 9.37014 14.0388 9.4895L13.6893 10.4492C13.8223 10.2988 14.0505 10.1921 14.5853 9.98828C16.9996 9.06253 33.781 2.95203 35.3439 2.35912L35.6934 1.39941Z" fill="white"/>
<path d="M129.538 3.94062C127.826 5.57862 126.658 6.28118 125.355 7.14191C124.99 7.40683 123.663 8.20351 124.303 7.92307C124.311 7.92016 124.317 7.91725 124.325 7.91434L124.376 7.89202L124.51 7.83379C125.117 7.56791 126.552 6.76249 126.987 6.52766C127.735 6.06576 128.273 5.75911 129.558 4.35497C129.777 4.11334 130.061 3.77565 130.29 3.44572C130.506 3.59419 130.688 3.72034 130.881 3.84164L131.283 3.11773C131.094 2.96829 130.901 2.82759 130.718 2.7092C131.076 1.97559 131.153 1.39336 130.971 0.923697C130.598 0.189117 129.405 1.01588 129.158 1.55639C128.689 2.48698 129.468 2.89648 130.003 3.24873C130.033 3.26911 130.062 3.28949 130.09 3.3089C129.916 3.54082 129.719 3.76886 129.537 3.94159L129.538 3.94062ZM129.494 1.68059C129.723 1.39045 130.241 1.32544 130.415 1.52145C130.601 1.74949 130.639 2.1095 130.5 2.57626C130.473 2.56073 130.445 2.54521 130.419 2.53065C129.877 2.21722 129.548 1.97171 129.494 1.68059Z" fill="white"/>
<path d="M92.2825 9.30108L92.4892 9.21083C92.8707 9.0449 93.5765 8.66645 94.158 8.34913C94.421 11.7707 94.7249 15.9938 94.9724 19.2029C95.0122 19.6919 95.0239 20.0403 95.0462 20.4275C95.0841 21.3193 95.086 21.4852 95.1947 21.1892L95.2044 21.1592C95.3656 20.707 95.4918 20.181 95.6141 19.5066C95.7374 18.9001 95.7296 18.0539 95.6966 17.4125C95.4665 14.6071 95.2054 11.04 94.9724 7.90276C95.7189 7.44279 96.2558 7.13324 97.5391 5.73298C97.7575 5.49135 98.0419 5.15366 98.2701 4.82373C98.4856 4.9722 98.6681 5.09738 98.8603 5.21965L99.2622 4.49574C99.0739 4.3463 98.8807 4.20657 98.6972 4.08721C99.0554 3.3536 99.134 2.77137 98.9506 2.30267C98.5778 1.56712 97.3857 2.39486 97.1382 2.93439C96.6683 3.86499 97.4478 4.27449 97.9837 4.62674C98.0138 4.64712 98.0419 4.66653 98.0711 4.68691C97.8963 4.91883 97.6983 5.14687 97.5168 5.32057C96.5169 6.27736 95.7024 6.91394 94.9384 7.45056C94.8394 6.11531 94.7453 4.87128 94.6627 3.81453C94.9307 4.18716 94.9656 4.25897 95.385 4.75677L95.4762 4.86255C95.8713 5.33027 94.919 2.40845 94.0832 0.299805L93.3435 2.08434C93.4765 2.37351 93.5765 2.71897 93.7056 3.02949C93.8104 3.98629 93.9609 5.80964 94.1308 7.99882C93.8667 8.17252 93.6037 8.34428 93.3348 8.52186C92.9707 8.78677 91.6427 9.58443 92.2834 9.30302L92.2825 9.30108ZM97.4721 3.0586C97.7012 2.76846 98.2186 2.70344 98.3924 2.89946C98.5788 3.12653 98.6166 3.48654 98.4778 3.9533C98.4506 3.93777 98.4225 3.92224 98.3963 3.90769C97.8546 3.59425 97.5255 3.34875 97.4711 3.05763L97.4721 3.0586Z" fill="white"/>
<path d="M110.511 7.89894C110.609 7.53505 110.61 6.9664 110.55 7.3041L110.534 7.37881C110.46 7.73106 110.327 8.04547 110.227 8.32009C109.95 9.05176 109.62 9.76693 109.585 10.353C109.535 10.912 109.678 11.3642 109.99 11.6786C110.217 11.9057 110.551 11.9309 110.8 11.7863C111.108 11.6116 111.304 11.1944 111.427 10.617C111.462 10.4258 111.495 10.256 111.498 10.1677L111.501 10.1434C111.523 9.84359 111.461 10.2366 111.37 10.4569C111.214 10.8091 111.093 10.9236 110.972 10.9848C110.772 11.0905 110.427 11.0401 110.201 10.78C109.952 10.4976 109.978 10.0571 110.017 9.70288C110.072 9.2274 110.378 8.48893 110.51 7.89991L110.511 7.89894Z" fill="white"/>
<path d="M144.451 2.58501L144.626 2.33853C145.142 2.96734 145.502 3.98042 145.722 5.04299L145.898 4.8984C146.274 3.82516 146.192 1.90671 146.656 1.55835C146.826 1.42929 147.076 1.50109 147.465 1.88537L147.666 1.39338C147.254 0.762632 146.955 0.639394 146.73 0.823766C146.217 1.24782 146.12 3.22061 145.871 4.4627C145.748 3.28369 145.196 1.38853 143.99 1.23812C143.962 1.25365 143.939 1.27499 143.925 1.30216L143.653 1.80968C143.547 2.01055 143.711 2.44528 144.452 2.58598L144.451 2.58501Z" fill="white"/>
<path d="M154.657 22.6071C154.501 22.9604 154.379 23.0739 154.259 23.136C154.058 23.2408 153.713 23.1913 153.487 22.9312C153.238 22.6489 153.265 22.2083 153.304 21.8541C153.359 21.3777 153.665 20.6402 153.797 20.0511C153.895 19.6873 153.895 19.1176 153.836 19.4544L153.82 19.5301C153.746 19.8813 153.613 20.1957 153.513 20.4704C153.235 21.202 152.905 21.9191 152.871 22.5043C152.82 23.0632 152.965 23.5164 153.276 23.8298C153.503 24.0579 153.837 24.0821 154.086 23.9385C154.394 23.7629 154.59 23.3466 154.713 22.7682C154.748 22.578 154.781 22.4072 154.785 22.3199L154.788 22.2956C154.81 21.9958 154.747 22.3888 154.657 22.6081V22.6071Z" fill="white"/>
<path d="M163.64 8.4878L163.79 7.83667C163.211 6.90025 162.154 6.08319 161.713 7.32528C161.644 7.45822 161.612 7.6028 161.566 7.78524L161.553 7.84346C161.481 8.1666 161.607 7.89489 161.832 7.62318C162.135 7.29325 162.528 7.50091 162.891 7.80367C161.847 7.84831 161.396 8.25005 161.248 9.02927C161.108 10.0123 161.45 10.6867 161.751 12.3422C162.007 13.5513 162.099 14.5905 162.135 15.1485C162.165 15.9306 162.076 16.4944 162.184 16.0801L162.215 15.9665C162.295 15.5939 162.338 15.2232 162.338 14.8574C162.381 14.0995 162.187 12.5828 162.038 11.9851C161.72 10.3897 161.546 9.58045 161.496 9.12048C161.809 8.43539 162.659 8.34903 163.64 8.48585V8.4878Z" fill="white"/>
<path d="M78.1416 3.64274C79.92 2.96056 83.4516 1.6127 85.0145 1.0198L85.2504 0.371582C83.6875 0.964486 80.1656 2.31235 78.3785 2.99453C77.7523 3.23421 77.5252 3.3361 77.4825 3.45643L77.2466 4.10465C77.3767 3.9523 77.5174 3.88243 78.1416 3.64274Z" fill="white"/>
<path d="M70.4182 8.5491C69.9046 8.97316 69.8076 10.945 69.5591 12.1871C69.4367 11.009 68.8844 9.11289 67.6777 8.96346C67.6496 8.97898 67.6273 9.00033 67.6127 9.02653L67.3409 9.53404C67.2351 9.73491 67.3991 10.1696 68.1398 10.3103L68.3155 10.0639C68.832 10.6927 69.1921 11.7058 69.4105 12.7683L69.5872 12.6228C69.9639 11.5505 69.8823 9.63108 70.3463 9.28271C70.5152 9.15365 70.7657 9.22546 71.154 9.60973L71.3559 9.11775C70.9434 8.487 70.6444 8.36376 70.4201 8.54813L70.4182 8.5491Z" fill="white"/>
<path d="M48.7849 5.00919L48.4811 5.84275C48.6141 5.69137 48.7752 5.61277 49.3771 5.38182C51.3565 4.62201 58.5012 1.97383 60.0651 1.3819L60.368 0.54834C58.805 1.14027 51.669 3.78942 49.68 4.54826C49.0781 4.77921 48.8247 4.88983 48.7849 5.00919Z" fill="white"/>
<path d="M41.9082 7.78238L42.115 7.69214C42.3528 7.5883 42.7168 7.40199 43.0983 7.20015C43.4158 11.335 43.8439 17.4532 44.1555 21.4716C44.1933 21.9626 44.2079 22.3168 44.2273 22.702C44.2661 23.5948 44.2642 23.75 44.3729 23.455L44.3836 23.425C44.5438 22.9728 44.6729 22.4449 44.7952 21.7714C44.9156 21.164 44.9136 20.3178 44.8787 19.6773C44.5826 16.0714 44.2098 10.7915 43.9167 6.75669C44.205 6.59851 44.4516 6.46169 44.5923 6.386C45.3408 5.9241 45.8786 5.61746 47.1638 4.21331C47.3823 3.97169 47.6667 3.63399 47.8958 3.30406C48.1113 3.45253 48.2938 3.57771 48.486 3.70095L48.8879 2.97704C48.6996 2.82761 48.5064 2.6869 48.3229 2.56851C48.6811 1.8349 48.7588 1.25267 48.5763 0.783006C48.2035 0.0474558 47.0105 0.875195 46.7629 1.4157C46.294 2.3463 47.0736 2.7558 47.6084 3.10805C47.6385 3.12842 47.6677 3.14783 47.6958 3.16821C47.5211 3.40013 47.324 3.62817 47.1425 3.8009C45.8446 5.04299 44.8583 5.74652 43.8895 6.38988C43.8303 5.58349 43.7749 4.83242 43.7245 4.16091C44.0031 4.54809 44.0332 4.61505 44.4583 5.12159L44.5506 5.22736C44.9447 5.69509 43.9924 2.77326 43.1575 0.664619L42.4188 2.44916C42.5508 2.73736 42.6508 3.08281 42.7799 3.39431C42.8527 4.09978 42.9566 5.35642 43.077 6.92456C43.0381 6.95076 42.9993 6.97599 42.9595 7.00219C42.5945 7.26711 41.2675 8.06379 41.9072 7.78335L41.9082 7.78238ZM47.0988 1.53991C47.3269 1.24976 47.8453 1.18475 48.0191 1.38076C48.2055 1.6088 48.2433 1.96785 48.1045 2.4346C48.0773 2.41907 48.0492 2.40355 48.023 2.38899C47.4813 2.07459 47.1522 1.83005 47.0988 1.53894V1.53991Z" fill="white"/>
<path d="M16.2589 14.9875C16.455 15.5591 17.485 16.2966 18.2664 14.611C18.2791 14.5887 18.2888 14.5644 18.2995 14.5411C18.3305 14.71 18.3771 14.842 18.4616 14.9264C18.7276 15.2524 19.3945 15.6901 20.0255 14.6178C20.5186 13.7639 20.0284 13.2408 19.743 12.4703C19.6022 12.0618 19.6973 11.6125 19.5119 12.0841L19.4517 12.2588C19.3731 12.4694 19.3585 12.644 19.4003 12.8061C19.5051 13.4136 20.1322 13.989 19.874 14.3509C19.6381 14.5994 19.043 14.5683 18.7829 14.3034C18.3208 13.9414 18.4654 12.482 18.115 12.0114L17.9131 12.4849C17.9742 12.6712 18.0441 12.876 18.1024 13.0827C18.1733 13.3864 18.2053 13.6717 18.2305 13.9269C18.2208 14.0948 18.18 14.2461 18.0907 14.3674C17.4772 15.1127 16.7909 14.8614 16.5802 14.4616C16.1502 13.6377 16.8724 12.6382 16.4773 12.2015L16.191 12.5616C16.0124 12.8313 16.0774 13.0341 16.191 13.2389C16.1288 13.7192 16.0444 14.3655 16.2599 14.9846L16.2589 14.9875Z" fill="white"/>
<path d="M7.52212 8.60347C8.18126 8.3502 9.82959 7.73983 11.8847 6.9839C11.8983 7.15177 11.9041 7.31965 11.9022 7.4885C11.8963 7.92905 11.809 9.34096 11.9604 8.74223L12.008 8.53263C12.0924 8.19202 12.172 7.75632 12.205 7.24978C12.2118 7.12266 12.2147 6.9936 12.2138 6.86357C17.3597 4.96938 24.7753 2.2591 25.8703 1.84475L26.1761 1.00439C25.0568 1.42845 17.3248 4.25615 12.172 6.15228C12.0031 4.64236 11.3071 3.00339 9.78494 1.70307L9.54419 3.07131C10.9081 4.23674 11.5372 5.28282 11.7779 6.29784C9.91793 6.98293 8.4453 7.52828 7.82984 7.76312C7.27846 7.97369 6.97461 8.10566 6.93384 8.22502L6.62805 9.06537C6.76104 8.91399 6.97364 8.81501 7.52406 8.60444L7.52212 8.60347Z" fill="white"/>
<path d="M3.66046 2.19985L3.83616 1.95337C4.33027 2.555 4.68072 3.50792 4.90205 4.52003C4.6613 4.55011 4.44774 4.73546 4.30115 5.14593C4.23126 5.27887 4.20019 5.42346 4.1536 5.60492L4.14195 5.66411C4.06914 5.98725 4.19437 5.71554 4.41958 5.44384C4.72246 5.11294 5.11658 5.32157 5.47965 5.62433C4.43512 5.66897 3.98371 6.07071 3.83519 6.84992C3.6954 7.83292 4.03905 8.50734 4.33998 10.1638C4.59529 11.3719 4.68654 12.4122 4.72343 12.9701C4.75352 13.7532 4.66421 14.3161 4.771 13.9017L4.80206 13.7882C4.88166 13.4155 4.92438 13.0448 4.92535 12.679C4.96903 11.9211 4.77391 10.4044 4.62441 9.80668C4.30698 8.21137 4.13321 7.40207 4.08273 6.94211C4.39531 6.25702 5.24569 6.17066 6.2281 6.30748L6.37662 5.65732C6.0388 5.10905 5.53789 4.60348 5.09134 4.52488L5.10688 4.51227C5.48353 3.44 5.40198 1.52155 5.866 1.17221C6.03589 1.04412 6.28537 1.11496 6.67367 1.49923L6.87559 1.00724C6.46302 0.375524 6.16403 0.252285 5.93978 0.437629C5.42625 0.860716 5.32918 2.83254 5.08067 4.0756C4.95835 2.89755 4.40696 1.00142 3.19935 0.851013C3.1712 0.866539 3.14887 0.888858 3.13431 0.915059L2.8625 1.42257C2.75668 1.62441 2.92074 2.05817 3.66143 2.19887L3.66046 2.19985Z" fill="white"/>
<path d="M63.258 15.3028L63.3056 15.0932C63.389 14.7536 63.4696 14.3169 63.5017 13.8104C63.5958 12.0423 62.9823 9.88712 61.0816 8.26367L60.8398 9.63191C62.7415 11.2563 63.2143 12.6498 63.1997 14.0491C63.1939 14.4897 63.1056 15.9025 63.258 15.3028Z" fill="white"/>
<path d="M31.3464 14.7062L31.3939 14.4966C31.4774 14.1559 31.558 13.7202 31.591 13.2137C31.6852 11.4447 31.0716 9.29044 29.1699 7.66699L28.9292 9.03426C30.8309 10.6587 31.3037 12.0531 31.2881 13.4524C31.2823 13.893 31.1949 15.3059 31.3464 14.7062Z" fill="white"/>
<path d="M125.738 15.7503L125.786 15.5417C125.869 15.2011 125.95 14.7654 125.983 14.2589C126.076 12.4899 125.464 10.3356 123.562 8.71118L123.321 10.0794C125.222 11.7038 125.695 13.0973 125.68 14.4976C125.674 14.9381 125.587 16.35 125.738 15.7503Z" fill="white"/>
<path d="M49.4499 23.4028C49.1723 23.3155 48.5083 23.6143 48.0987 24.6352C48.0453 24.7788 47.9628 24.9971 47.9084 25.2223L47.8725 25.3678C47.8074 25.7026 48.022 25.1786 48.1501 25.0437C48.5957 24.444 49.0966 24.4819 49.2752 24.6992C49.5936 25.1621 49.4266 26.1926 48.5064 27.3542C48.2365 27.687 47.7074 28.4003 48.0618 28.0655L48.1423 27.9888C48.4588 27.688 48.6102 27.5085 48.884 27.1718C50.3382 25.4027 50.1557 23.6289 49.4499 23.4018V23.4028Z" fill="white"/>
<path d="M137.909 7.33791C137.902 7.77847 137.816 9.19134 137.967 8.59165L138.016 8.38204C138.099 8.04144 138.179 7.60574 138.212 7.0992C138.306 5.33019 137.692 3.17691 135.791 1.55249L135.549 2.92073C137.451 4.54515 137.923 5.93862 137.909 7.33791Z" fill="white"/>
<path d="M33.1082 27.9101C32.6539 28.1818 32.2782 28.3138 31.9773 28.3846C31.0036 28.6311 30.2863 28.5399 30.1649 27.9722C30.0212 26.9514 31.8162 26.3536 32.0297 25.4434L32.1802 24.901C31.8948 25.3532 31.5599 25.6811 31.2356 25.9684C31.1988 25.9985 31.1628 26.0276 31.1279 26.0547C30.791 26.1363 30.0698 25.9364 29.898 25.3939C30.3746 24.8932 30.793 24.8612 30.9988 25.0193C31.3366 25.292 31.3842 25.6384 31.3842 25.5851L31.3813 25.1455C31.3813 24.7991 31.3327 24.5953 31.2056 24.4565C30.9376 24.2168 30.3707 24.3847 29.8659 25.2484L29.7271 25.5899C29.5164 26.2411 30.0707 26.4672 30.5639 26.5729C30.1814 26.9572 29.9096 27.3842 29.9174 28.0828C30.0038 28.7476 30.4115 29.2298 31.5511 29.0503C31.9851 29.0125 32.487 28.8087 32.9539 28.4419C33.2577 28.2226 33.6218 27.7869 33.7577 27.5782L33.8819 27.3793C34.2003 26.8922 33.7761 27.4938 33.1063 27.9091L33.1082 27.9101Z" fill="white"/>
<path d="M119.926 26.9477C119.16 27.0428 118.412 28.2625 118.134 28.8118C118.194 28.5954 118.279 28.3072 118.336 28.0597C118.569 27.0301 118.715 25.7968 118.178 25.3096C118.003 25.1786 117.393 25.103 116.972 26.0229L116.829 26.3373C116.745 26.5508 117.169 25.7463 117.779 25.9336C118.148 26.0714 118.376 26.7545 118.228 27.9287C118.168 28.3081 118.166 28.5449 118.067 28.9272C117.979 28.9398 117.889 28.9525 117.797 28.9631C116.24 29.1242 115.268 28.8729 115.687 29.0621L115.79 29.1174C116.442 29.3862 116.943 29.5716 117.499 29.6502C117.903 29.7084 118.805 29.5667 119.377 29.4056C119.853 29.2445 120.562 28.8845 120.798 28.0073C120.984 27.4018 120.556 26.9302 119.927 26.9477H119.926ZM119.509 28.6157C119.266 28.6934 118.841 28.8001 118.303 28.8894C118.591 28.4906 119.115 27.7472 119.985 27.6657C120.234 27.657 120.564 27.7443 120.632 27.9423C120.358 28.2907 120.092 28.4091 119.508 28.6148L119.509 28.6157Z" fill="white"/>
<path d="M26.2955 8.99648C26.6333 9.57968 26.5567 10.7538 26.5974 10.4375L26.6401 10.0872C26.7877 8.8975 26.6479 8.49576 26.3178 8.21435C26.0198 7.96108 25.2122 8.11052 24.8287 8.783C24.1647 9.83974 24.8326 10.7878 25.218 11.9115C25.4461 12.5879 25.5189 13.5563 25.3325 14.55C24.9636 12.4326 24.2608 10.8363 22.9076 10.6558L22.9503 11.7592C23.393 12.0134 23.6764 12.0668 24.0152 12.517L24.056 12.3851C24.5889 12.9197 25.0112 13.795 25.2025 15.1002L25.3452 14.6305C25.7053 13.6107 25.7344 12.3336 25.5335 11.601C25.3015 10.7519 24.6656 9.63014 24.9336 8.98969C25.2199 8.57339 25.9897 8.47344 26.2936 8.99842L26.2955 8.99648Z" fill="white"/>
<path d="M81.1459 24.5672C80.9051 24.7545 80.6091 25.1911 80.4712 25.7617C80.4275 25.9335 80.3945 26.0868 80.3839 26.18L80.3761 26.2421C80.3528 26.4478 80.4227 26.1547 80.5207 25.9257C80.6304 25.6763 80.8071 25.4628 80.942 25.3629C81.1478 25.2028 81.6468 25.1504 81.9604 25.5298C82.3137 25.9568 82.1351 26.8369 82.0186 27.1882C81.9138 27.522 81.7779 27.8616 81.5672 28.2595C81.31 28.7389 81.1566 28.9611 81.1139 29.0639L81.0857 29.1328C81.0013 29.3725 81.4925 28.7039 81.7866 28.1828C82.0545 27.7103 82.3254 27.1562 82.4778 26.5545C82.6525 25.95 82.6214 25.1009 82.2079 24.6409C81.8905 24.2935 81.4031 24.3712 81.1459 24.5681V24.5672Z" fill="white"/>
<path d="M7.50075 25.0436C7.26097 25.2309 6.9649 25.6666 6.82608 26.2382C6.78239 26.4089 6.74939 26.5623 6.73871 26.6554L6.73094 26.7175C6.70764 26.9242 6.77754 26.6292 6.87656 26.4012C6.98625 26.1518 7.16293 25.9373 7.29689 25.8374C7.50366 25.6773 8.00166 25.6249 8.31521 26.0053C8.66857 26.4313 8.49092 27.3114 8.37443 27.6627C8.26959 27.9965 8.13368 28.3361 7.92206 28.734C7.66481 29.2133 7.5124 29.4365 7.46872 29.5384L7.44056 29.6083C7.35514 29.847 7.84731 29.1784 8.14048 28.6573C8.4084 28.1847 8.67924 27.6306 8.83165 27.03C9.00736 26.4245 8.97532 25.5763 8.56081 25.1154C8.24435 24.768 7.75606 24.8457 7.49881 25.0436H7.50075Z" fill="white"/>
<path d="M129.777 27.8694C129.678 28.1227 129.509 28.343 129.379 28.4497C129.179 28.6186 128.683 28.6904 128.355 28.3226C127.984 27.9112 128.127 27.0242 128.23 26.6681C128.321 26.3314 128.443 25.9859 128.638 25.5803C128.876 25.0922 129.021 24.8622 129.059 24.7584L129.084 24.6876C129.16 24.4459 128.696 25.133 128.422 25.6657C128.173 26.149 127.925 26.7137 127.797 27.3202C127.645 27.9315 127.711 28.7787 128.144 29.2222C128.474 29.5569 128.959 29.4589 129.207 29.2513C129.439 29.0553 129.719 28.6069 129.834 28.0315C129.871 27.8578 129.898 27.7035 129.904 27.6103C129.904 27.5997 129.906 27.5909 129.907 27.5822V27.5628L129.909 27.5482C129.924 27.3416 129.866 27.6375 129.777 27.8704V27.8694Z" fill="white"/>
</svg>
