<svg width="20" height="24" viewBox="0 0 20 24" fill="none" xmlns="http://www.w3.org/2000/svg">
<path d="M19.4784 5.508L10.4089 0.112449C10.2851 0.038858 10.1438 1.52588e-05 9.99988 1.52588e-05C9.85591 1.52588e-05 9.71461 0.038858 9.59087 0.112449L0.521355 5.508C0.402197 5.5789 0.303509 5.67955 0.234967 5.80009C0.166425 5.92062 0.130382 6.0569 0.130371 6.19556V9.27557C0.130371 15.7628 3.8785 21.6879 9.71101 23.946C9.89685 24.018 10.1029 24.018 10.2887 23.946C16.1071 21.6935 19.8693 15.7813 19.8693 9.27557V6.19556C19.8693 6.0569 19.8333 5.92061 19.7648 5.80008C19.6962 5.67954 19.5975 5.57889 19.4784 5.508ZM13.9522 10.2023L8.93823 15.2164C8.62581 15.5288 8.11928 15.5288 7.80686 15.2164L6.04717 13.4567C5.73475 13.1444 5.73475 12.6378 6.04717 12.3254C6.35959 12.013 6.86617 12.013 7.17854 12.3254L8.3725 13.5193L12.8208 9.07097C13.1332 8.75859 13.6398 8.75859 13.9522 9.07097C14.2647 9.38343 14.2647 9.88996 13.9522 10.2023Z" fill="#A5A5A5"/>
</svg>
