<svg width="800" height="26" viewBox="0 0 800 26" fill="none" xmlns="http://www.w3.org/2000/svg">
<path d="M526.831 9.74644C527.737 8.67463 528.557 7.70552 529.372 6.7364C530.846 4.97787 532.315 3.21935 533.789 1.46082C534.904 0.125877 536.255 -0.278456 537.756 0.183639C539.97 0.863945 541.186 3.7392 540.415 6.38341C540.189 7.16641 539.793 7.81462 539.31 8.39224C537.842 10.1508 536.373 11.9157 534.899 13.6742C531.945 17.2106 528.986 20.7404 526.033 24.2768C525.539 24.8672 524.998 25.3678 524.328 25.6695C521.541 26.9145 518.893 24.4436 518.893 21.3694C518.898 18.3337 518.893 15.298 518.893 12.2687C518.893 9.74002 518.893 7.21133 518.903 4.68265C518.914 3.14233 519.461 1.89724 520.49 0.998723C521.76 -0.111589 523.159 -0.272038 524.569 0.523792C525.99 1.31962 526.756 2.73158 526.815 4.61205C526.863 6.08819 526.826 7.56432 526.831 9.04046C526.831 9.233 526.831 9.43196 526.831 9.74644Z" fill="#F3F4F6"/>
<path d="M550.149 0.0296179C551.671 0.0360359 553.134 1.18486 553.724 2.96906C554.265 4.61206 554.035 6.67865 552.823 8.1227C548.208 13.6165 543.598 19.1167 539.004 24.6426C537.048 26.998 533.279 26.2856 532.384 22.5247C531.961 20.7533 532.363 19.1616 533.446 17.8459C534.502 16.5623 535.563 15.2916 536.63 14.0144C540.114 9.85555 543.603 5.70312 547.082 1.53784C547.903 0.562311 548.857 -0.00247203 550.149 0.0296179Z" fill="#F3F4F6"/>
<path d="M561.939 9.74644C562.845 8.67463 563.665 7.70552 564.48 6.7364C565.954 4.97787 567.422 3.21935 568.897 1.46082C570.011 0.125877 571.362 -0.278456 572.863 0.183639C575.077 0.863945 576.294 3.7392 575.522 6.38341C575.297 7.16641 574.9 7.81462 574.418 8.39224C572.949 10.1508 571.48 11.9157 570.006 13.6742C567.053 17.2106 564.094 20.7404 561.14 24.2768C560.647 24.8672 560.105 25.3678 559.435 25.6695C556.648 26.9145 554 24.4436 554 21.3694C554.005 18.3337 554 15.298 554 12.2687C554 9.74002 554 7.21133 554.011 4.68265C554.021 3.14233 554.568 1.89724 555.597 0.998723C556.868 -0.111589 558.267 -0.272038 559.677 0.523792C561.097 1.31962 561.864 2.73158 561.923 4.61205C561.971 6.08819 561.933 7.56432 561.939 9.04046C561.939 9.233 561.939 9.43196 561.939 9.74644Z" fill="#F3F4F6"/>
<path d="M585.256 0.0296179C586.778 0.0360359 588.242 1.18486 588.831 2.96906C589.373 4.61206 589.142 6.67865 587.931 8.1227C583.315 13.6165 578.706 19.1167 574.112 24.6426C572.155 26.998 568.387 26.2856 567.492 22.5247C567.068 20.7533 567.47 19.1616 568.553 17.8459C569.609 16.5623 570.67 15.2916 571.737 14.0144C575.221 9.85555 578.711 5.70312 582.19 1.53784C583.01 0.562311 583.964 -0.00247203 585.256 0.0296179Z" fill="#F3F4F6"/>
<path d="M597.046 9.74644C597.952 8.67463 598.772 7.70552 599.587 6.7364C601.061 4.97787 602.53 3.21935 604.004 1.46082C605.119 0.125877 606.47 -0.278456 607.971 0.183639C610.184 0.863945 611.401 3.7392 610.629 6.38341C610.404 7.16641 610.008 7.81462 609.525 8.39224C608.056 10.1508 606.588 11.9157 605.114 13.6742C602.16 17.2106 599.201 20.7404 596.247 24.2768C595.754 24.8672 595.213 25.3678 594.543 25.6695C591.755 26.9145 589.107 24.4436 589.107 21.3694C589.113 18.3337 589.107 15.298 589.107 12.2687C589.107 9.74002 589.107 7.21133 589.118 4.68265C589.129 3.14233 589.676 1.89724 590.705 0.998723C591.975 -0.111589 593.374 -0.272038 594.784 0.523792C596.205 1.31962 596.971 2.73158 597.03 4.61205C597.078 6.08819 597.041 7.56432 597.046 9.04046C597.046 9.233 597.046 9.43196 597.046 9.74644Z" fill="#F3F4F6"/>
<path d="M620.363 0.0296179C621.886 0.0360359 623.349 1.18486 623.939 2.96906C624.48 4.61206 624.25 6.67865 623.038 8.1227C618.423 13.6165 613.813 19.1167 609.219 24.6426C607.263 26.998 603.494 26.2856 602.599 22.5247C602.176 20.7533 602.578 19.1616 603.66 17.8459C604.716 16.5623 605.778 15.2916 606.844 14.0144C610.329 9.85555 613.818 5.70312 617.297 1.53784C618.117 0.562311 619.072 -0.00247203 620.363 0.0296179Z" fill="#F3F4F6"/>
<path d="M632.154 9.74644C633.059 8.67463 633.88 7.70552 634.694 6.7364C636.169 4.97787 637.637 3.21935 639.111 1.46082C640.226 0.125877 641.577 -0.278456 643.078 0.183639C645.292 0.863945 646.509 3.7392 645.737 6.38341C645.512 7.16641 645.115 7.81462 644.633 8.39224C643.164 10.1508 641.695 11.9157 640.221 13.6742C637.267 17.2106 634.308 20.7404 631.355 24.2768C630.862 24.8672 630.32 25.3678 629.65 25.6695C626.863 26.9145 624.215 24.4436 624.215 21.3694C624.22 18.3337 624.215 15.298 624.215 12.2687C624.215 9.74002 624.215 7.21133 624.226 4.68265C624.236 3.14233 624.783 1.89724 625.812 0.998723C627.083 -0.111589 628.482 -0.272038 629.891 0.523792C631.312 1.31962 632.079 2.73158 632.137 4.61205C632.186 6.08819 632.148 7.56432 632.154 9.04046C632.154 9.233 632.154 9.43196 632.154 9.74644Z" fill="#F3F4F6"/>
<path d="M655.471 0.0296179C656.993 0.0360359 658.457 1.18486 659.046 2.96906C659.588 4.61206 659.357 6.67865 658.146 8.1227C653.53 13.6165 648.92 19.1167 644.327 24.6426C642.37 26.998 638.602 26.2856 637.706 22.5247C637.283 20.7533 637.685 19.1616 638.768 17.8459C639.824 16.5623 640.885 15.2916 641.952 14.0144C645.436 9.85555 648.926 5.70312 652.405 1.53784C653.225 0.562311 654.179 -0.00247203 655.471 0.0296179Z" fill="#F3F4F6"/>
<path d="M667.261 9.74644C668.167 8.67463 668.987 7.70552 669.802 6.7364C671.276 4.97787 672.745 3.21935 674.219 1.46082C675.334 0.125877 676.685 -0.278456 678.185 0.183639C680.399 0.863945 681.616 3.7392 680.844 6.38341C680.619 7.16641 680.222 7.81462 679.74 8.39224C678.271 10.1508 676.802 11.9157 675.328 13.6742C672.375 17.2106 669.416 20.7404 666.462 24.2768C665.969 24.8672 665.428 25.3678 664.758 25.6695C661.97 26.9145 659.322 24.4436 659.322 21.3694C659.328 18.3337 659.322 15.298 659.322 12.2687C659.322 9.74002 659.322 7.21133 659.333 4.68265C659.344 3.14233 659.89 1.89724 660.92 0.998723C662.19 -0.111589 663.589 -0.272038 664.999 0.523792C666.419 1.31962 667.186 2.73158 667.245 4.61205C667.293 6.08819 667.256 7.56432 667.261 9.04046C667.261 9.233 667.261 9.43196 667.261 9.74644Z" fill="#F3F4F6"/>
<path d="M690.578 0.0296179C692.101 0.0360359 693.564 1.18486 694.154 2.96906C694.695 4.61206 694.464 6.67865 693.253 8.1227C688.638 13.6165 684.028 19.1167 679.434 24.6426C677.477 26.998 673.709 26.2856 672.814 22.5247C672.39 20.7533 672.792 19.1616 673.875 17.8459C674.931 16.5623 675.993 15.2916 677.059 14.0144C680.544 9.85555 684.033 5.70312 687.512 1.53784C688.332 0.562311 689.286 -0.00247203 690.578 0.0296179Z" fill="#F3F4F6"/>
<path d="M702.368 9.74644C703.274 8.67463 704.094 7.70552 704.909 6.7364C706.383 4.97787 707.852 3.21935 709.326 1.46082C710.441 0.125877 711.792 -0.278456 713.293 0.183639C715.507 0.863945 716.724 3.7392 715.952 6.38341C715.727 7.16641 715.33 7.81462 714.847 8.39224C713.379 10.1508 711.91 11.9157 710.436 13.6742C707.482 17.2106 704.523 20.7404 701.57 24.2768C701.077 24.8672 700.535 25.3678 699.865 25.6695C697.078 26.9145 694.43 24.4436 694.43 21.3694C694.435 18.3337 694.43 15.298 694.43 12.2687C694.43 9.74002 694.43 7.21133 694.44 4.68265C694.451 3.14233 694.998 1.89724 696.027 0.998723C697.297 -0.111589 698.697 -0.272038 700.106 0.523792C701.527 1.31962 702.293 2.73158 702.352 4.61205C702.401 6.08819 702.363 7.56432 702.368 9.04046C702.368 9.233 702.368 9.43196 702.368 9.74644Z" fill="#F3F4F6"/>
<path d="M725.686 0.0296179C727.208 0.0360359 728.671 1.18486 729.261 2.96906C729.802 4.61206 729.572 6.67865 728.36 8.1227C723.745 13.6165 719.135 19.1167 714.541 24.6426C712.585 26.998 708.816 26.2856 707.921 22.5247C707.498 20.7533 707.9 19.1616 708.983 17.8459C710.039 16.5623 711.1 15.2916 712.167 14.0144C715.651 9.85555 719.141 5.70312 722.619 1.53784C723.44 0.562311 724.394 -0.00247203 725.686 0.0296179Z" fill="#F3F4F6"/>
<path d="M737.476 9.74644C738.382 8.67463 739.202 7.70552 740.017 6.7364C741.491 4.97787 742.96 3.21935 744.434 1.46082C745.549 0.125877 746.899 -0.278456 748.4 0.183639C750.614 0.863945 751.831 3.7392 751.059 6.38341C750.834 7.16641 750.437 7.81462 749.955 8.39224C748.486 10.1508 747.017 11.9157 745.543 13.6742C742.59 17.2106 739.631 20.7404 736.677 24.2768C736.184 24.8672 735.643 25.3678 734.973 25.6695C732.185 26.9145 729.537 24.4436 729.537 21.3694C729.542 18.3337 729.537 15.298 729.537 12.2687C729.537 9.74002 729.537 7.21133 729.548 4.68265C729.559 3.14233 730.105 1.89724 731.135 0.998723C732.405 -0.111589 733.804 -0.272038 735.214 0.523792C736.634 1.31962 737.401 2.73158 737.46 4.61205C737.508 6.08819 737.47 7.56432 737.476 9.04046C737.476 9.233 737.476 9.43196 737.476 9.74644Z" fill="#F3F4F6"/>
<path d="M760.793 0.0296179C762.315 0.0360359 763.779 1.18486 764.368 2.96906C764.91 4.61206 764.679 6.67865 763.468 8.1227C758.853 13.6165 754.243 19.1167 749.649 24.6426C747.692 26.998 743.924 26.2856 743.029 22.5247C742.605 20.7533 743.007 19.1616 744.09 17.8459C745.146 16.5623 746.207 15.2916 747.274 14.0144C750.758 9.85555 754.248 5.70312 757.727 1.53784C758.547 0.562311 759.501 -0.00247203 760.793 0.0296179Z" fill="#F3F4F6"/>
<path d="M772.583 9.74644C773.489 8.67463 774.309 7.70552 775.124 6.7364C776.598 4.97787 778.067 3.21935 779.541 1.46082C780.656 0.125877 782.007 -0.278456 783.508 0.183639C785.722 0.863945 786.938 3.7392 786.166 6.38341C785.941 7.16641 785.545 7.81462 785.062 8.39224C783.594 10.1508 782.125 11.9157 780.651 13.6742C777.697 17.2106 774.738 20.7404 771.785 24.2768C771.291 24.8672 770.75 25.3678 770.08 25.6695C767.293 26.9145 764.645 24.4436 764.645 21.3694C764.65 18.3337 764.645 15.298 764.645 12.2687C764.645 9.74002 764.645 7.21133 764.655 4.68265C764.666 3.14233 765.213 1.89724 766.242 0.998723C767.512 -0.111589 768.911 -0.272038 770.321 0.523792C771.742 1.31962 772.508 2.73158 772.567 4.61205C772.615 6.08819 772.578 7.56432 772.583 9.04046C772.583 9.233 772.583 9.43196 772.583 9.74644Z" fill="#F3F4F6"/>
<path d="M795.9 0.0296179C797.423 0.0360359 798.886 1.18486 799.476 2.96906C800.017 4.61206 799.787 6.67865 798.575 8.1227C793.96 13.6165 789.35 19.1167 784.756 24.6426C782.8 26.998 779.031 26.2856 778.136 22.5247C777.713 20.7533 778.115 19.1616 779.198 17.8459C780.254 16.5623 781.315 15.2916 782.382 14.0144C785.866 9.85555 789.355 5.70312 792.834 1.53784C793.654 0.562311 794.609 -0.00247203 795.9 0.0296179Z" fill="#F3F4F6"/>
<path d="M491.837 9.74644C492.743 8.67463 493.563 7.70552 494.378 6.7364C495.852 4.97787 497.321 3.21935 498.795 1.46082C499.91 0.125877 501.261 -0.278456 502.762 0.183639C504.975 0.863945 506.192 3.7392 505.42 6.38341C505.195 7.16641 504.799 7.81462 504.316 8.39224C502.847 10.1508 501.379 11.9157 499.905 13.6742C496.951 17.2106 493.992 20.7404 491.038 24.2768C490.545 24.8672 490.004 25.3678 489.334 25.6695C486.546 26.9145 483.898 24.4436 483.898 21.3694C483.904 18.3337 483.898 15.298 483.898 12.2687C483.898 9.74002 483.898 7.21133 483.909 4.68265C483.92 3.14233 484.467 1.89724 485.496 0.998723C486.766 -0.111589 488.165 -0.272038 489.575 0.523792C490.996 1.31962 491.762 2.73158 491.821 4.61205C491.869 6.08819 491.832 7.56432 491.837 9.04046C491.837 9.233 491.837 9.43196 491.837 9.74644Z" fill="#F3F4F6"/>
<path d="M515.154 0.0296179C516.677 0.0360359 518.14 1.18486 518.73 2.96906C519.271 4.61206 519.041 6.67865 517.829 8.1227C513.214 13.6165 508.604 19.1167 504.01 24.6426C502.054 26.998 498.285 26.2856 497.39 22.5247C496.967 20.7533 497.369 19.1616 498.451 17.8459C499.507 16.5623 500.569 15.2916 501.635 14.0144C505.12 9.85555 508.609 5.70312 512.088 1.53784C512.908 0.562311 513.863 -0.00247203 515.154 0.0296179Z" fill="#F3F4F6"/>
<path d="M456.845 9.74644C457.751 8.67463 458.571 7.70552 459.386 6.7364C460.86 4.97787 462.329 3.21935 463.803 1.46082C464.918 0.125877 466.269 -0.278456 467.769 0.183639C469.983 0.863945 471.2 3.7392 470.428 6.38341C470.203 7.16641 469.806 7.81462 469.324 8.39224C467.855 10.1508 466.386 11.9157 464.912 13.6742C461.959 17.2106 459 20.7404 456.046 24.2768C455.553 24.8672 455.012 25.3678 454.342 25.6695C451.554 26.9145 448.906 24.4436 448.906 21.3694C448.912 18.3337 448.906 15.298 448.906 12.2687C448.906 9.74002 448.906 7.21133 448.917 4.68265C448.928 3.14233 449.474 1.89724 450.504 0.998723C451.774 -0.111589 453.173 -0.272038 454.583 0.523792C456.003 1.31962 456.77 2.73158 456.829 4.61205C456.877 6.08819 456.84 7.56432 456.845 9.04046C456.845 9.233 456.845 9.43196 456.845 9.74644Z" fill="#F3F4F6"/>
<path d="M480.162 0.0296179C481.685 0.0360359 483.148 1.18486 483.738 2.96906C484.279 4.61206 484.048 6.67865 482.837 8.1227C478.222 13.6165 473.612 19.1167 469.018 24.6426C467.061 26.998 463.293 26.2856 462.398 22.5247C461.974 20.7533 462.376 19.1616 463.459 17.8459C464.515 16.5623 465.577 15.2916 466.643 14.0144C470.128 9.85555 473.617 5.70312 477.096 1.53784C477.916 0.562311 478.87 -0.00247203 480.162 0.0296179Z" fill="#F3F4F6"/>
<path d="M421.853 9.74644C422.759 8.67463 423.579 7.70552 424.394 6.7364C425.868 4.97787 427.336 3.21935 428.811 1.46082C429.926 0.125877 431.276 -0.278456 432.777 0.183639C434.991 0.863945 436.208 3.7392 435.436 6.38341C435.211 7.16641 434.814 7.81462 434.332 8.39224C432.863 10.1508 431.394 11.9157 429.92 13.6742C426.967 17.2106 424.008 20.7404 421.054 24.2768C420.561 24.8672 420.02 25.3678 419.349 25.6695C416.562 26.9145 413.914 24.4436 413.914 21.3694C413.919 18.3337 413.914 15.298 413.914 12.2687C413.914 9.74002 413.914 7.21133 413.925 4.68265C413.936 3.14233 414.482 1.89724 415.511 0.998723C416.782 -0.111589 418.181 -0.272038 419.591 0.523792C421.011 1.31962 421.778 2.73158 421.837 4.61205C421.885 6.08819 421.847 7.56432 421.853 9.04046C421.853 9.233 421.853 9.43196 421.853 9.74644Z" fill="#F3F4F6"/>
<path d="M445.17 0.0296179C446.692 0.0360359 448.156 1.18486 448.745 2.96906C449.287 4.61206 449.056 6.67865 447.845 8.1227C443.23 13.6165 438.62 19.1167 434.026 24.6426C432.069 26.998 428.301 26.2856 427.406 22.5247C426.982 20.7533 427.384 19.1616 428.467 17.8459C429.523 16.5623 430.584 15.2916 431.651 14.0144C435.135 9.85555 438.625 5.70312 442.104 1.53784C442.924 0.562311 443.878 -0.00247203 445.17 0.0296179Z" fill="#F3F4F6"/>
<path d="M386.859 9.74644C387.765 8.67463 388.585 7.70552 389.399 6.7364C390.874 4.97787 392.342 3.21935 393.816 1.46082C394.931 0.125877 396.282 -0.278456 397.783 0.183639C399.997 0.863945 401.214 3.7392 400.442 6.38341C400.217 7.16641 399.82 7.81462 399.338 8.39224C397.869 10.1508 396.4 11.9157 394.926 13.6742C391.972 17.2106 389.014 20.7404 386.06 24.2768C385.567 24.8672 385.025 25.3678 384.355 25.6695C381.568 26.9145 378.92 24.4436 378.92 21.3694C378.925 18.3337 378.92 15.298 378.92 12.2687C378.92 9.74002 378.92 7.21133 378.931 4.68265C378.941 3.14233 379.488 1.89724 380.517 0.998723C381.788 -0.111589 383.187 -0.272038 384.597 0.523792C386.017 1.31962 386.784 2.73158 386.843 4.61205C386.891 6.08819 386.853 7.56432 386.859 9.04046C386.859 9.233 386.859 9.43196 386.859 9.74644Z" fill="#F3F4F6"/>
<path d="M410.176 0.0296179C411.698 0.0360359 413.162 1.18486 413.751 2.96906C414.293 4.61206 414.062 6.67865 412.851 8.1227C408.235 13.6165 403.625 19.1167 399.032 24.6426C397.075 26.998 393.307 26.2856 392.412 22.5247C391.988 20.7533 392.39 19.1616 393.473 17.8459C394.529 16.5623 395.59 15.2916 396.657 14.0144C400.141 9.85555 403.631 5.70312 407.11 1.53784C407.93 0.562311 408.884 -0.00247203 410.176 0.0296179Z" fill="#F3F4F6"/>
<path d="M351.866 9.74644C352.772 8.67463 353.593 7.70552 354.407 6.7364C355.881 4.97787 357.35 3.21935 358.824 1.46082C359.939 0.125877 361.29 -0.278456 362.791 0.183639C365.005 0.863945 366.222 3.7392 365.45 6.38341C365.225 7.16641 364.828 7.81462 364.345 8.39224C362.877 10.1508 361.408 11.9157 359.934 13.6742C356.98 17.2106 354.021 20.7404 351.068 24.2768C350.575 24.8672 350.033 25.3678 349.363 25.6695C346.576 26.9145 343.928 24.4436 343.928 21.3694C343.933 18.3337 343.928 15.298 343.928 12.2687C343.928 9.74002 343.928 7.21133 343.938 4.68265C343.949 3.14233 344.496 1.89724 345.525 0.998723C346.796 -0.111589 348.195 -0.272038 349.604 0.523792C351.025 1.31962 351.791 2.73158 351.85 4.61205C351.899 6.08819 351.861 7.56432 351.866 9.04046C351.866 9.233 351.866 9.43196 351.866 9.74644Z" fill="#F3F4F6"/>
<path d="M375.184 0.0296179C376.706 0.0360359 378.169 1.18486 378.759 2.96906C379.3 4.61206 379.07 6.67865 377.859 8.1227C373.243 13.6165 368.633 19.1167 364.039 24.6426C362.083 26.998 358.315 26.2856 357.419 22.5247C356.996 20.7533 357.398 19.1616 358.481 17.8459C359.537 16.5623 360.598 15.2916 361.665 14.0144C365.149 9.85555 368.639 5.70312 372.118 1.53784C372.938 0.562311 373.892 -0.00247203 375.184 0.0296179Z" fill="#F3F4F6"/>
<path d="M316.874 9.74644C317.78 8.67463 318.6 7.70552 319.415 6.7364C320.889 4.97787 322.358 3.21935 323.832 1.46082C324.947 0.125877 326.298 -0.278456 327.799 0.183639C330.013 0.863945 331.229 3.7392 330.458 6.38341C330.232 7.16641 329.836 7.81462 329.353 8.39224C327.885 10.1508 326.416 11.9157 324.942 13.6742C321.988 17.2106 319.029 20.7404 316.076 24.2768C315.582 24.8672 315.041 25.3678 314.371 25.6695C311.584 26.9145 308.936 24.4436 308.936 21.3694C308.941 18.3337 308.936 15.298 308.936 12.2687C308.936 9.74002 308.936 7.21133 308.946 4.68265C308.957 3.14233 309.504 1.89724 310.533 0.998723C311.803 -0.111589 313.202 -0.272038 314.612 0.523792C316.033 1.31962 316.799 2.73158 316.858 4.61205C316.906 6.08819 316.869 7.56432 316.874 9.04046C316.874 9.233 316.874 9.43196 316.874 9.74644Z" fill="#F3F4F6"/>
<path d="M340.191 0.0296179C341.714 0.0360359 343.177 1.18486 343.767 2.96906C344.308 4.61206 344.078 6.67865 342.866 8.1227C338.251 13.6165 333.641 19.1167 329.047 24.6426C327.091 26.998 323.322 26.2856 322.427 22.5247C322.004 20.7533 322.406 19.1616 323.489 17.8459C324.545 16.5623 325.606 15.2916 326.673 14.0144C330.157 9.85555 333.646 5.70312 337.125 1.53784C337.945 0.562311 338.9 -0.00247203 340.191 0.0296179Z" fill="#F3F4F6"/>
<path d="M281.88 9.74644C282.786 8.67463 283.606 7.70552 284.421 6.7364C285.895 4.97787 287.364 3.21935 288.838 1.46082C289.953 0.125877 291.304 -0.278456 292.805 0.183639C295.018 0.863945 296.235 3.7392 295.463 6.38341C295.238 7.16641 294.842 7.81462 294.359 8.39224C292.89 10.1508 291.422 11.9157 289.948 13.6742C286.994 17.2106 284.035 20.7404 281.081 24.2768C280.588 24.8672 280.047 25.3678 279.377 25.6695C276.589 26.9145 273.941 24.4436 273.941 21.3694C273.947 18.3337 273.941 15.298 273.941 12.2687C273.941 9.74002 273.941 7.21133 273.952 4.68265C273.963 3.14233 274.51 1.89724 275.539 0.998723C276.809 -0.111589 278.208 -0.272038 279.618 0.523792C281.039 1.31962 281.805 2.73158 281.864 4.61205C281.912 6.08819 281.875 7.56432 281.88 9.04046C281.88 9.233 281.88 9.43196 281.88 9.74644Z" fill="#F3F4F6"/>
<path d="M305.197 0.0296179C306.72 0.0360359 308.183 1.18486 308.773 2.96906C309.314 4.61206 309.084 6.67865 307.872 8.1227C303.257 13.6165 298.647 19.1167 294.053 24.6426C292.097 26.998 288.328 26.2856 287.433 22.5247C287.01 20.7533 287.412 19.1616 288.494 17.8459C289.55 16.5623 290.612 15.2916 291.678 14.0144C295.163 9.85555 298.652 5.70312 302.131 1.53784C302.951 0.562311 303.906 -0.00247203 305.197 0.0296179Z" fill="#F3F4F6"/>
<path d="M246.888 9.74644C247.794 8.67463 248.614 7.70552 249.429 6.7364C250.903 4.97787 252.372 3.21935 253.846 1.46082C254.961 0.125877 256.312 -0.278456 257.812 0.183639C260.026 0.863945 261.243 3.7392 260.471 6.38341C260.246 7.16641 259.849 7.81462 259.367 8.39224C257.898 10.1508 256.429 11.9157 254.955 13.6742C252.002 17.2106 249.043 20.7404 246.089 24.2768C245.596 24.8672 245.055 25.3678 244.385 25.6695C241.597 26.9145 238.949 24.4436 238.949 21.3694C238.955 18.3337 238.949 15.298 238.949 12.2687C238.949 9.74002 238.949 7.21133 238.96 4.68265C238.971 3.14233 239.517 1.89724 240.547 0.998723C241.817 -0.111589 243.216 -0.272038 244.626 0.523792C246.046 1.31962 246.813 2.73158 246.872 4.61205C246.92 6.08819 246.883 7.56432 246.888 9.04046C246.888 9.233 246.888 9.43196 246.888 9.74644Z" fill="#F3F4F6"/>
<path d="M270.205 0.0296179C271.728 0.0360359 273.191 1.18486 273.781 2.96906C274.322 4.61206 274.091 6.67865 272.88 8.1227C268.265 13.6165 263.655 19.1167 259.061 24.6426C257.104 26.998 253.336 26.2856 252.441 22.5247C252.017 20.7533 252.419 19.1616 253.502 17.8459C254.558 16.5623 255.62 15.2916 256.686 14.0144C260.171 9.85555 263.66 5.70312 267.139 1.53784C267.959 0.562311 268.913 -0.00247203 270.205 0.0296179Z" fill="#F3F4F6"/>
<path d="M211.896 9.74644C212.802 8.67463 213.622 7.70552 214.437 6.7364C215.911 4.97787 217.379 3.21935 218.854 1.46082C219.969 0.125877 221.319 -0.278456 222.82 0.183639C225.034 0.863945 226.251 3.7392 225.479 6.38341C225.254 7.16641 224.857 7.81462 224.375 8.39224C222.906 10.1508 221.437 11.9157 219.963 13.6742C217.01 17.2106 214.051 20.7404 211.097 24.2768C210.604 24.8672 210.063 25.3678 209.392 25.6695C206.605 26.9145 203.957 24.4436 203.957 21.3694C203.962 18.3337 203.957 15.298 203.957 12.2687C203.957 9.74002 203.957 7.21133 203.968 4.68265C203.978 3.14233 204.525 1.89724 205.554 0.998723C206.825 -0.111589 208.224 -0.272038 209.634 0.523792C211.054 1.31962 211.821 2.73158 211.88 4.61205C211.928 6.08819 211.89 7.56432 211.896 9.04046C211.896 9.233 211.896 9.43196 211.896 9.74644Z" fill="#F3F4F6"/>
<path d="M235.213 0.0296179C236.735 0.0360359 238.199 1.18486 238.788 2.96906C239.33 4.61206 239.099 6.67865 237.888 8.1227C233.273 13.6165 228.663 19.1167 224.069 24.6426C222.112 26.998 218.344 26.2856 217.449 22.5247C217.025 20.7533 217.427 19.1616 218.51 17.8459C219.566 16.5623 220.627 15.2916 221.694 14.0144C225.178 9.85555 228.668 5.70312 232.147 1.53784C232.967 0.562311 233.921 -0.00247203 235.213 0.0296179Z" fill="#F3F4F6"/>
<path d="M176.904 9.74644C177.809 8.67463 178.63 7.70552 179.444 6.7364C180.919 4.97787 182.387 3.21935 183.861 1.46082C184.976 0.125877 186.327 -0.278456 187.828 0.183639C190.042 0.863945 191.259 3.7392 190.487 6.38341C190.262 7.16641 189.865 7.81462 189.383 8.39224C187.914 10.1508 186.445 11.9157 184.971 13.6742C182.017 17.2106 179.058 20.7404 176.105 24.2768C175.612 24.8672 175.07 25.3678 174.4 25.6695C171.613 26.9145 168.965 24.4436 168.965 21.3694C168.97 18.3337 168.965 15.298 168.965 12.2687C168.965 9.74002 168.965 7.21133 168.976 4.68265C168.986 3.14233 169.533 1.89724 170.562 0.998723C171.833 -0.111589 173.232 -0.272038 174.641 0.523792C176.062 1.31962 176.829 2.73158 176.887 4.61205C176.936 6.08819 176.898 7.56432 176.904 9.04046C176.904 9.233 176.904 9.43196 176.904 9.74644Z" fill="#F3F4F6"/>
<path d="M200.221 0.0296179C201.743 0.0360359 203.207 1.18486 203.796 2.96906C204.338 4.61206 204.107 6.67865 202.896 8.1227C198.28 13.6165 193.67 19.1167 189.077 24.6426C187.12 26.998 183.352 26.2856 182.456 22.5247C182.033 20.7533 182.435 19.1616 183.518 17.8459C184.574 16.5623 185.635 15.2916 186.702 14.0144C190.186 9.85555 193.676 5.70312 197.155 1.53784C197.975 0.562311 198.929 -0.00247203 200.221 0.0296179Z" fill="#F3F4F6"/>
<path d="M141.909 9.74644C142.815 8.67463 143.635 7.70552 144.45 6.7364C145.924 4.97787 147.393 3.21935 148.867 1.46082C149.982 0.125877 151.333 -0.278456 152.834 0.183639C155.048 0.863945 156.265 3.7392 155.493 6.38341C155.268 7.16641 154.871 7.81462 154.388 8.39224C152.92 10.1508 151.451 11.9157 149.977 13.6742C147.023 17.2106 144.064 20.7404 141.111 24.2768C140.618 24.8672 140.076 25.3678 139.406 25.6695C136.619 26.9145 133.971 24.4436 133.971 21.3694C133.976 18.3337 133.971 15.298 133.971 12.2687C133.971 9.74002 133.971 7.21133 133.981 4.68265C133.992 3.14233 134.539 1.89724 135.568 0.998723C136.839 -0.111589 138.238 -0.272038 139.647 0.523792C141.068 1.31962 141.834 2.73158 141.893 4.61205C141.942 6.08819 141.904 7.56432 141.909 9.04046C141.909 9.233 141.909 9.43196 141.909 9.74644Z" fill="#F3F4F6"/>
<path d="M165.227 0.0296179C166.749 0.0360359 168.212 1.18486 168.802 2.96906C169.343 4.61206 169.113 6.67865 167.901 8.1227C163.286 13.6165 158.676 19.1167 154.082 24.6426C152.126 26.998 148.358 26.2856 147.462 22.5247C147.039 20.7533 147.441 19.1616 148.524 17.8459C149.58 16.5623 150.641 15.2916 151.708 14.0144C155.192 9.85555 158.682 5.70312 162.161 1.53784C162.981 0.562311 163.935 -0.00247203 165.227 0.0296179Z" fill="#F3F4F6"/>
<path d="M106.917 9.74644C107.823 8.67463 108.643 7.70552 109.458 6.7364C110.932 4.97787 112.401 3.21935 113.875 1.46082C114.99 0.125877 116.341 -0.278456 117.842 0.183639C120.056 0.863945 121.272 3.7392 120.5 6.38341C120.275 7.16641 119.879 7.81462 119.396 8.39224C117.927 10.1508 116.459 11.9157 114.985 13.6742C112.031 17.2106 109.072 20.7404 106.119 24.2768C105.625 24.8672 105.084 25.3678 104.414 25.6695C101.627 26.9145 98.9785 24.4436 98.9785 21.3694C98.9839 18.3337 98.9785 15.298 98.9785 12.2687C98.9785 9.74002 98.9785 7.21133 98.9892 4.68265C99 3.14233 99.5467 1.89724 100.576 0.998723C101.846 -0.111589 103.245 -0.272038 104.655 0.523792C106.076 1.31962 106.842 2.73158 106.901 4.61205C106.949 6.08819 106.912 7.56432 106.917 9.04046C106.917 9.233 106.917 9.43196 106.917 9.74644Z" fill="#F3F4F6"/>
<path d="M130.234 0.0296179C131.757 0.0360359 133.22 1.18486 133.81 2.96906C134.351 4.61206 134.121 6.67865 132.909 8.1227C128.294 13.6165 123.684 19.1167 119.09 24.6426C117.134 26.998 113.365 26.2856 112.47 22.5247C112.047 20.7533 112.449 19.1616 113.531 17.8459C114.587 16.5623 115.649 15.2916 116.716 14.0144C120.2 9.85555 123.689 5.70312 127.168 1.53784C127.988 0.562311 128.943 -0.00247203 130.234 0.0296179Z" fill="#F3F4F6"/>
<path d="M71.9251 9.74644C72.831 8.67463 73.6511 7.70552 74.4659 6.7364C75.94 4.97787 77.4087 3.21935 78.8828 1.46082C79.9978 0.125877 81.3486 -0.278456 82.8495 0.183639C85.0634 0.863945 86.2802 3.7392 85.5083 6.38341C85.2831 7.16641 84.8865 7.81462 84.404 8.39224C82.9353 10.1508 81.4666 11.9157 79.9924 13.6742C77.0389 17.2106 74.0799 20.7404 71.1264 24.2768C70.6332 24.8672 70.0918 25.3678 69.4218 25.6695C66.6344 26.9145 63.9863 24.4436 63.9863 21.3694C63.9917 18.3337 63.9863 15.298 63.9863 12.2687C63.9863 9.74002 63.9863 7.21133 63.997 4.68265C64.0078 3.14233 64.5545 1.89724 65.5837 0.998723C66.8541 -0.111589 68.2532 -0.272038 69.663 0.523792C71.0835 1.31962 71.85 2.73158 71.909 4.61205C71.9572 6.08819 71.9197 7.56432 71.9251 9.04046C71.9251 9.233 71.9251 9.43196 71.9251 9.74644Z" fill="#F3F4F6"/>
<path d="M95.2423 0.0296179C96.7646 0.0360359 98.228 1.18486 98.8177 2.96906C99.3591 4.61206 99.1286 6.67865 97.9171 8.1227C93.3018 13.6165 88.6919 19.1167 84.098 24.6426C82.1415 26.998 78.3731 26.2856 77.478 22.5247C77.0545 20.7533 77.4565 19.1616 78.5393 17.8459C79.5953 16.5623 80.6567 15.2916 81.7234 14.0144C85.2076 9.85555 88.6972 5.70312 92.1761 1.53784C92.9963 0.562311 93.9504 -0.00247203 95.2423 0.0296179Z" fill="#F3F4F6"/>
<path d="M36.9309 9.74644C37.8368 8.67463 38.657 7.70552 39.4717 6.7364C40.9459 4.97787 42.4146 3.21935 43.8887 1.46082C45.0037 0.125877 46.3545 -0.278456 47.8554 0.183639C50.0692 0.863945 51.286 3.7392 50.5141 6.38341C50.289 7.16641 49.8923 7.81462 49.4099 8.39224C47.9412 10.1508 46.4724 11.9157 44.9983 13.6742C42.0447 17.2106 39.0858 20.7404 36.1322 24.2768C35.6391 24.8672 35.0977 25.3678 34.4276 25.6695C31.6402 26.9145 28.9922 24.4436 28.9922 21.3694C28.9975 18.3337 28.9922 15.298 28.9922 12.2687C28.9922 9.74002 28.9922 7.21133 29.0029 4.68265C29.0136 3.14233 29.5604 1.89724 30.5896 0.998723C31.86 -0.111589 33.2591 -0.272038 34.6688 0.523792C36.0893 1.31962 36.8559 2.73158 36.9148 4.61205C36.9631 6.08819 36.9256 7.56432 36.9309 9.04046C36.9309 9.233 36.9309 9.43196 36.9309 9.74644Z" fill="#F3F4F6"/>
<path d="M60.2481 0.0296179C61.7705 0.0360359 63.2339 1.18486 63.8235 2.96906C64.3649 4.61206 64.1344 6.67865 62.923 8.1227C58.3077 13.6165 53.6977 19.1167 49.1039 24.6426C47.1474 26.998 43.379 26.2856 42.4838 22.5247C42.0603 20.7533 42.4624 19.1616 43.5452 17.8459C44.6012 16.5623 45.6625 15.2916 46.7292 14.0144C50.2135 9.85555 53.7031 5.70312 57.182 1.53784C58.0021 0.562311 58.9563 -0.00247203 60.2481 0.0296179Z" fill="#F3F4F6"/>
<path d="M1.93873 9.74644C2.84464 8.67463 3.66478 7.70552 4.47956 6.7364C5.95366 4.97787 7.42241 3.21935 8.89652 1.46082C10.0115 0.125877 11.3623 -0.278456 12.8632 0.183639C15.077 0.863945 16.2939 3.7392 15.522 6.38341C15.2968 7.16641 14.9002 7.81462 14.4177 8.39224C12.949 10.1508 11.4802 11.9157 10.0061 13.6742C7.05254 17.2106 4.09361 20.7404 1.14004 24.2768C0.646881 24.8672 0.105482 25.3678 -0.564567 25.6695C-3.35197 26.9145 -6 24.4436 -6 21.3694C-5.99464 18.3337 -6 15.298 -6 12.2687C-6 9.74002 -6 7.21133 -5.98928 4.68265C-5.97856 3.14233 -5.4318 1.89724 -4.4026 0.998723C-3.13219 -0.111589 -1.73313 -0.272038 -0.323349 0.523792C1.09715 1.31962 1.86369 2.73158 1.92265 4.61205C1.9709 6.08819 1.93337 7.56432 1.93873 9.04046C1.93873 9.233 1.93873 9.43196 1.93873 9.74644Z" fill="#F3F4F6"/>
<path d="M25.2559 0.0296179C26.7783 0.0360359 28.2417 1.18486 28.8313 2.96906C29.3727 4.61206 29.1422 6.67865 27.9308 8.1227C23.3155 13.6165 18.7056 19.1167 14.1117 24.6426C12.1552 26.998 8.38681 26.2856 7.49163 22.5247C7.06816 20.7533 7.47018 19.1616 8.55298 17.8459C9.60898 16.5623 10.6703 15.2916 11.7371 14.0144C15.2213 9.85555 18.7109 5.70312 22.1898 1.53784C23.0099 0.562311 23.9641 -0.00247203 25.2559 0.0296179Z" fill="#F3F4F6"/>
</svg>
