<svg width="1600" height="357" viewBox="0 0 1600 357" fill="none" xmlns="http://www.w3.org/2000/svg">
<rect width="1600" height="357" fill="url(#paint0_linear_127_4154)"/>
<mask id="mask0_127_4154" style="mask-type:alpha" maskUnits="userSpaceOnUse" x="0" y="0" width="1600" height="357">
<rect width="1600" height="357" fill="url(#paint1_linear_127_4154)"/>
</mask>
<g mask="url(#mask0_127_4154)">
<g opacity="0.07">
<path d="M980.088 310.309C987.287 301.791 993.805 294.09 1000.28 286.388C1011.99 272.413 1023.67 258.439 1035.38 244.464C1044.24 233.855 1054.98 230.642 1066.9 234.314C1084.5 239.721 1094.17 262.57 1088.03 283.583C1086.24 289.805 1083.09 294.957 1079.26 299.547C1067.59 313.522 1055.91 327.548 1044.2 341.522C1020.73 369.625 997.213 397.677 973.741 425.779C969.822 430.471 965.519 434.45 960.195 436.847C938.044 446.741 917 427.105 917 402.675C917.043 378.55 917 354.426 917 330.353C917 310.258 917 290.162 917.085 270.067C917.17 257.827 921.515 247.932 929.694 240.792C939.79 231.968 950.908 230.693 962.112 237.017C973.4 243.342 979.492 254.562 979.96 269.506C980.344 281.237 980.046 292.968 980.088 304.698C980.088 306.228 980.088 307.809 980.088 310.309Z" fill="#F3F4F6"/>
<path d="M1165.39 233.09C1177.49 233.141 1189.12 242.271 1193.8 256.449C1198.11 269.506 1196.27 285.929 1186.65 297.405C1149.97 341.063 1113.33 384.773 1076.83 428.686C1061.28 447.404 1031.33 441.743 1024.22 411.855C1020.85 397.779 1024.05 385.13 1032.65 374.674C1041.05 364.474 1049.48 354.375 1057.96 344.225C1085.65 311.176 1113.38 278.177 1141.02 245.076C1147.54 237.323 1155.12 232.835 1165.39 233.09Z" fill="#F3F4F6"/>
</g>
<g opacity="0.07">
<path d="M1113.09 -2.54628C1120.29 -11.0638 1126.8 -18.7652 1133.28 -26.4667C1144.99 -40.4415 1156.67 -54.4163 1168.38 -68.3911C1177.24 -78.9997 1187.98 -82.2129 1199.9 -78.5406C1217.5 -73.1343 1227.17 -50.285 1221.03 -29.2718C1219.24 -23.0495 1216.09 -17.8982 1212.26 -13.3079C1200.59 0.666897 1188.91 14.6927 1177.2 28.6675C1153.73 56.7701 1130.21 84.8217 1106.74 112.924C1102.82 117.617 1098.52 121.595 1093.19 123.992C1071.04 133.887 1050 114.25 1050 89.82C1050.04 65.6956 1050 41.5713 1050 17.4979C1050 -2.59728 1050 -22.6924 1050.09 -42.7876C1050.17 -55.0283 1054.52 -64.9229 1062.69 -72.0633C1072.79 -80.8868 1083.91 -82.1619 1095.11 -75.8375C1106.4 -69.5131 1112.49 -58.2925 1112.96 -43.3486C1113.34 -31.618 1113.05 -19.8873 1113.09 -8.15661C1113.09 -6.62652 1113.09 -5.04543 1113.09 -2.54628Z" fill="#F3F4F6"/>
<path d="M1298.39 -79.7647C1310.49 -79.7137 1322.12 -70.5842 1326.8 -56.4054C1331.11 -43.3487 1329.27 -26.9257 1319.65 -15.4501C1282.97 28.2084 1246.33 71.9179 1209.83 115.831C1194.28 134.55 1164.33 128.888 1157.22 99.0005C1153.85 84.9237 1157.05 72.275 1165.65 61.8194C1174.05 51.6188 1182.48 41.5202 1190.96 31.3706C1218.65 -1.67927 1246.38 -34.6782 1274.02 -67.7791C1280.54 -75.5315 1288.12 -80.0198 1298.39 -79.7647Z" fill="#F3F4F6"/>
</g>
<g opacity="0.07">
<path d="M468.088 310.309C475.287 301.791 481.805 294.09 488.28 286.388C499.994 272.413 511.666 258.439 523.381 244.464C532.241 233.855 542.976 230.642 554.904 234.314C572.497 239.721 582.166 262.57 576.032 283.583C574.243 289.805 571.091 294.957 567.257 299.547C555.585 313.522 543.913 327.548 532.199 341.522C508.727 369.625 485.213 397.677 461.741 425.779C457.822 430.471 453.519 434.45 448.195 436.847C426.044 446.741 405 427.105 405 402.675C405.043 378.55 405 354.426 405 330.353C405 310.258 405 290.162 405.085 270.067C405.17 257.827 409.515 247.932 417.694 240.792C427.79 231.968 438.908 230.693 450.112 237.017C461.4 243.342 467.492 254.562 467.96 269.506C468.344 281.237 468.046 292.968 468.088 304.698C468.088 306.228 468.088 307.809 468.088 310.309Z" fill="#F3F4F6"/>
<path d="M653.39 233.09C665.488 233.141 677.117 242.271 681.803 256.449C686.106 269.506 684.274 285.929 674.647 297.405C637.969 341.063 601.335 384.773 564.828 428.686C549.28 447.404 519.333 441.743 512.219 411.855C508.854 397.779 512.049 385.13 520.654 374.674C529.045 364.474 537.48 354.375 545.957 344.225C573.646 311.176 601.377 278.177 629.024 245.076C635.541 237.323 643.124 232.835 653.39 233.09Z" fill="#F3F4F6"/>
</g>
<g opacity="0.07">
<path d="M334.088 -2.54628C341.287 -11.0638 347.805 -18.7652 354.28 -26.4667C365.994 -40.4415 377.666 -54.4163 389.381 -68.3911C398.241 -78.9997 408.976 -82.2129 420.904 -78.5406C438.497 -73.1343 448.166 -50.285 442.032 -29.2718C440.243 -23.0495 437.091 -17.8982 433.257 -13.3079C421.585 0.666897 409.913 14.6927 398.199 28.6675C374.727 56.7701 351.213 84.8217 327.741 112.924C323.822 117.617 319.519 121.595 314.195 123.992C292.044 133.887 271 114.25 271 89.82C271.043 65.6956 271 41.5713 271 17.4979C271 -2.59728 271 -22.6924 271.085 -42.7876C271.17 -55.0283 275.515 -64.9229 283.694 -72.0633C293.79 -80.8868 304.908 -82.1619 316.112 -75.8375C327.4 -69.5131 333.492 -58.2925 333.96 -43.3486C334.344 -31.618 334.046 -19.8873 334.088 -8.15661C334.088 -6.62652 334.088 -5.04543 334.088 -2.54628Z" fill="#F3F4F6"/>
<path d="M519.39 -79.7647C531.488 -79.7137 543.117 -70.5842 547.803 -56.4054C552.106 -43.3487 550.274 -26.9257 540.647 -15.4501C503.969 28.2084 467.335 71.9179 430.828 115.831C415.28 134.55 385.333 128.888 378.219 99.0005C374.854 84.9237 378.049 72.275 386.654 61.8194C395.045 51.6188 403.48 41.5202 411.957 31.3706C439.646 -1.67927 467.377 -34.6782 495.024 -67.7791C501.541 -75.5315 509.124 -80.0198 519.39 -79.7647Z" fill="#F3F4F6"/>
</g>
</g>
<defs>
<linearGradient id="paint0_linear_127_4154" x1="0" y1="0" x2="138.439" y2="711.284" gradientUnits="userSpaceOnUse">
<stop stop-color="#862216"/>
<stop offset="1" stop-color="#B02614"/>
</linearGradient>
<linearGradient id="paint1_linear_127_4154" x1="0" y1="0" x2="138.439" y2="711.284" gradientUnits="userSpaceOnUse">
<stop stop-color="#862216"/>
<stop offset="1" stop-color="#B02614"/>
</linearGradient>
</defs>
</svg>
